<svg width="32" height="32" viewBox="0 0 32 32" fill="none" xmlns="http://www.w3.org/2000/svg">
<g id="Frame 7">
<style>
<style>
    path {
      fill: black;
    }
    @media (prefers-color-scheme: dark) {
      path {
        fill: white;
      }
    }
  </style>
</style>
<path d="M6.65327 25.4337V25.289L7.26716 25.2869C7.87647 25.2848 7.88119 25.2846 7.8984 25.2726C7.90793 25.2656 7.92126 25.249 7.92804 25.2356C7.93984 25.2123 7.94039 25.1974 7.94205 24.8437L7.94467 24.4759H7.91833C7.89312 24.4759 7.89126 24.4778 7.87466 24.5068C7.85045 24.5501 7.79293 24.6211 7.75335 24.6567C7.66688 24.7346 7.55393 24.7907 7.42817 24.8183C7.34876 24.8358 7.16741 24.8343 7.0723 24.8153C6.64108 24.7295 6.3533 24.4104 6.30433 23.9638C6.29454 23.8749 6.29612 23.6765 6.30729 23.5915C6.35834 23.2013 6.60126 22.8966 6.949 22.7866C7.05109 22.7544 7.10519 22.7456 7.22633 22.7421C7.39028 22.7372 7.49088 22.7559 7.60183 22.8118C7.7181 22.8705 7.82147 22.9691 7.87665 23.0742C7.89134 23.102 7.8932 23.1034 7.91811 23.1034H7.94424V22.9495V22.7957H8.0979H8.25156L8.2492 24.0712L8.24683 25.3468L8.2319 25.3851C8.20148 25.4628 8.13531 25.5291 8.05773 25.5596L8.01956 25.5745L7.33611 25.5766L6.65264 25.5787L6.65327 25.4337ZM7.38815 24.5286C7.52916 24.5043 7.63637 24.4477 7.73759 24.3442C7.85526 24.2238 7.92075 24.0721 7.9375 23.8812C7.94923 23.7476 7.93488 23.6079 7.90032 23.5028C7.82482 23.277 7.66759 23.1218 7.44885 23.0573C7.37021 23.0341 7.22983 23.0294 7.14475 23.0471C6.94189 23.0895 6.78742 23.2096 6.69603 23.3962C6.65627 23.4774 6.63905 23.5323 6.62545 23.6209C6.61498 23.6892 6.61346 23.8654 6.62272 23.9395C6.6527 24.1791 6.78137 24.3714 6.97737 24.4696C7.03195 24.497 7.11306 24.5226 7.17237 24.5311C7.23232 24.5398 7.32968 24.5387 7.38815 24.5286ZM9.26423 24.8245C8.92571 24.7756 8.67875 24.5777 8.55491 24.2563C8.50305 24.1218 8.48402 23.9958 8.48402 23.7871C8.48402 23.5798 8.50312 23.4522 8.5538 23.3207C8.66308 23.0372 8.87653 22.8422 9.15672 22.7698C9.2462 22.7467 9.29544 22.7408 9.39823 22.7408C9.57216 22.7408 9.70181 22.7783 9.82774 22.8653C9.89862 22.9142 9.98921 23.0185 10.0203 23.087C10.027 23.1016 10.0315 23.1039 10.0546 23.1039H10.0813V22.95V22.7961H10.2348H10.3883L10.3901 23.607C10.3919 24.4053 10.3922 24.4183 10.4041 24.4388C10.4279 24.4794 10.4426 24.4854 10.5243 24.4877L10.5976 24.4903V24.635V24.7797L10.4547 24.777C10.327 24.7744 10.308 24.773 10.275 24.7608C10.2228 24.7417 10.1752 24.7067 10.142 24.6631C10.1042 24.6133 10.0874 24.5669 10.0824 24.4984L10.0784 24.443L10.0561 24.4404C10.0343 24.4381 10.0334 24.4391 10.0092 24.4835C9.91742 24.6508 9.77137 24.7625 9.57842 24.8127C9.50429 24.832 9.35569 24.8377 9.26423 24.8245ZM9.60219 24.5176C9.80902 24.4641 9.96097 24.3153 10.0348 24.0938C10.0714 23.984 10.0857 23.8444 10.0753 23.6973C10.0514 23.3581 9.85478 23.107 9.5665 23.0474C9.51708 23.0371 9.49116 23.0355 9.41475 23.038C9.30373 23.0416 9.25196 23.0538 9.16286 23.0978C9.03857 23.1591 8.94765 23.2521 8.88309 23.3839C8.82045 23.5118 8.80352 23.5983 8.80353 23.7902C8.80353 23.9333 8.81225 24.0098 8.83792 24.0947C8.91098 24.3357 9.09045 24.4935 9.33488 24.5316C9.40029 24.5418 9.53622 24.5346 9.60219 24.5176ZM13.8022 24.8273C13.6804 24.8119 13.5898 24.7849 13.4817 24.7317C13.3851 24.6841 13.3164 24.6332 13.238 24.5515C13.1062 24.4139 13.0167 24.2317 12.9793 24.025C12.9674 23.959 12.9658 23.9288 12.9657 23.7686C12.9657 23.6038 12.9672 23.5807 12.9797 23.5178C13.0209 23.3139 13.1022 23.1596 13.2415 23.0205C13.3782 22.884 13.533 22.8002 13.7265 22.7579C13.781 22.746 13.8075 22.7442 13.9363 22.7441C14.0549 22.7433 14.0944 22.7467 14.1383 22.755C14.3194 22.7919 14.4744 22.8757 14.6061 23.0081C14.7374 23.14 14.8141 23.2843 14.8548 23.4763C14.8657 23.5273 14.8685 23.5672 14.8714 23.7086L14.8749 23.8794H14.0754H13.2759V23.9087C13.276 23.9469 13.2911 24.0383 13.3057 24.0887C13.3642 24.2901 13.5006 24.4383 13.6844 24.5C13.767 24.5278 13.82 24.5349 13.9424 24.5345C14.0734 24.5337 14.1361 24.5242 14.225 24.4896C14.3009 24.4601 14.3492 24.4288 14.4066 24.3718C14.4631 24.3157 14.5027 24.2549 14.5327 24.1779C14.542 24.1542 14.5513 24.1326 14.5513 24.1326C14.5531 24.13 14.8372 24.2057 14.8421 24.2098C14.8481 24.2149 14.8143 24.3045 14.7834 24.3654C14.7407 24.4493 14.6865 24.521 14.6104 24.5942C14.4821 24.7176 14.3511 24.7815 14.1575 24.8154C14.0748 24.8298 13.8749 24.8365 13.8022 24.8273ZM14.5599 23.5879C14.5599 23.5627 14.5394 23.4683 14.5255 23.4291C14.4659 23.2616 14.3284 23.1305 14.15 23.0712C14.0593 23.041 14.0088 23.0342 13.9025 23.0378C13.7184 23.0441 13.5811 23.1033 13.4571 23.2298C13.3656 23.3232 13.3048 23.4434 13.285 23.5701L13.281 23.5963H13.9204C14.4575 23.5963 14.5599 23.5942 14.5599 23.5879ZM16.0074 24.8266C15.7944 24.8041 15.6113 24.7258 15.4806 24.6013C15.3529 24.4797 15.2795 24.3286 15.2578 24.143L15.2544 24.1142L15.3964 24.0796C15.4745 24.0605 15.5417 24.0462 15.5458 24.0478C15.5499 24.0499 15.555 24.0678 15.5572 24.0886C15.5594 24.1095 15.5696 24.152 15.5799 24.183C15.6391 24.3613 15.7792 24.4839 15.9759 24.5296C16.0457 24.5458 16.2419 24.5459 16.3169 24.5304C16.5363 24.4832 16.6522 24.348 16.6251 24.1708C16.5976 23.991 16.453 23.9168 16.0712 23.8863C15.8903 23.8719 15.7583 23.8405 15.6434 23.7846C15.4568 23.6937 15.3704 23.5621 15.3606 23.3537C15.3523 23.1768 15.3956 23.0593 15.5115 22.9444C15.6187 22.8381 15.761 22.7727 15.9384 22.748C16.0074 22.7383 16.1742 22.7398 16.2462 22.7507C16.5132 22.7908 16.7195 22.9263 16.8199 23.1274C16.8589 23.2056 16.9012 23.3457 16.8882 23.3538C16.8783 23.36 16.6042 23.4244 16.5997 23.4216C16.5971 23.4195 16.5932 23.4051 16.591 23.3884C16.5812 23.3147 16.5414 23.2286 16.4914 23.1728C16.4085 23.0805 16.2863 23.0286 16.1326 23.0204C16.0163 23.0143 15.9147 23.0321 15.8276 23.074C15.7654 23.1039 15.7172 23.1473 15.6898 23.198C15.6692 23.2361 15.6688 23.2383 15.6688 23.3107C15.6688 23.38 15.67 23.3867 15.6866 23.4198C15.7475 23.5403 15.8855 23.5947 16.2063 23.6247C16.393 23.6422 16.5128 23.6678 16.6161 23.7124C16.7957 23.79 16.8937 23.9017 16.9281 24.0681C16.94 24.1261 16.9419 24.2639 16.9315 24.3232C16.8823 24.6044 16.6493 24.7875 16.2893 24.8277C16.2251 24.8349 16.0774 24.8344 16.0074 24.8266ZM22.491 24.824C22.1525 24.7751 21.9056 24.5773 21.7817 24.2559C21.7299 24.1213 21.7108 23.9953 21.7108 23.7866C21.7108 23.5794 21.7299 23.4517 21.7806 23.3202C21.8899 23.0367 22.1033 22.8417 22.3835 22.7693C22.473 22.7462 22.5223 22.7403 22.625 22.7403C22.799 22.7403 22.9286 22.7778 23.0546 22.8648C23.1254 22.9137 23.216 23.018 23.2471 23.0865C23.2538 23.1012 23.2583 23.1034 23.2815 23.1034H23.3081V22.9495V22.7956H23.4616H23.6151L23.6166 23.6065C23.6182 24.4048 23.6185 24.4178 23.6306 24.4383C23.6544 24.4789 23.6692 24.4849 23.7508 24.4872L23.8241 24.4898V24.6345V24.7792L23.6813 24.7765C23.5535 24.7738 23.5345 24.7724 23.5016 24.7603C23.4493 24.7412 23.4017 24.7062 23.3686 24.6626C23.3307 24.6128 23.3139 24.5664 23.309 24.4979L23.305 24.4425L23.2827 24.4399C23.2608 24.4376 23.2599 24.4384 23.2357 24.483C23.144 24.6504 22.9979 24.762 22.805 24.8122C22.7309 24.8315 22.5825 24.8372 22.491 24.824ZM22.829 24.5171C23.0358 24.4636 23.1878 24.3148 23.2616 24.0933C23.2982 23.9835 23.3125 23.8439 23.3021 23.6968C23.2782 23.3576 23.0816 23.1065 22.7933 23.0469C22.7439 23.0366 22.718 23.035 22.6416 23.0375C22.5305 23.0411 22.4788 23.0533 22.3897 23.0973C22.2654 23.1586 22.1745 23.2516 22.1099 23.3835C22.0473 23.5113 22.0303 23.5978 22.0303 23.7897C22.0303 23.9328 22.039 24.0094 22.0647 24.0942C22.1378 24.3352 22.3173 24.493 22.5617 24.5311C22.6271 24.5413 22.763 24.5341 22.829 24.5171ZM24.903 24.8232C24.793 24.8061 24.6916 24.771 24.6097 24.7216C24.5039 24.6579 24.4286 24.5895 24.3786 24.5119C24.3573 24.4787 24.3539 24.476 24.3325 24.476L24.3095 24.4759V24.6267V24.7775H24.1528H23.9962V23.3773V21.977H24.1528H24.3095V22.5402V23.1034L24.3325 23.1033C24.3541 23.1032 24.3572 23.1006 24.3801 23.0648C24.4137 23.0121 24.5037 22.92 24.5588 22.8818C24.6538 22.8161 24.7765 22.7684 24.9022 22.7484C24.9854 22.7352 25.1616 22.7401 25.238 22.7578C25.4072 22.7971 25.5513 22.8763 25.6703 22.9956C25.8211 23.1467 25.9176 23.3571 25.9432 23.5909C25.9531 23.681 25.9515 23.9206 25.9405 24.0051C25.8927 24.3702 25.6981 24.6416 25.3969 24.7634C25.2447 24.8249 25.0587 24.8475 24.903 24.8232ZM25.1319 24.5193C25.3243 24.4716 25.4679 24.3573 25.5536 24.1836C25.6127 24.0636 25.6303 23.9727 25.6303 23.7866C25.6303 23.7043 25.6271 23.6408 25.6212 23.604C25.5729 23.3062 25.3609 23.0874 25.0763 23.0417C25.0068 23.0305 24.8665 23.0369 24.8041 23.054C24.5538 23.1224 24.3663 23.3391 24.3194 23.6138C24.306 23.6922 24.3059 23.8801 24.3189 23.9594C24.3689 24.2575 24.5734 24.4749 24.8538 24.5281C24.9213 24.5409 25.0627 24.5364 25.1319 24.5193ZM10.6895 23.7866V22.7956H10.8462H11.0028V22.9034V23.0111L11.0258 23.0103C11.0488 23.0095 11.0489 23.0095 11.0758 22.9533C11.1238 22.8523 11.212 22.7794 11.3198 22.7518C11.3784 22.7368 11.4852 22.7355 11.5428 22.7491C11.6509 22.7746 11.7455 22.8583 11.7894 22.9672C11.8047 23.005 11.8069 23.0075 11.8271 23.0092C11.848 23.0118 11.8495 23.01 11.8833 22.9562C11.9225 22.8942 11.9902 22.8259 12.0414 22.7966C12.1076 22.7587 12.1641 22.7442 12.2585 22.7409C12.3126 22.7383 12.3599 22.7404 12.3875 22.7456C12.5919 22.7815 12.7248 22.9425 12.7474 23.1816C12.7513 23.222 12.7537 23.5429 12.7537 24.0121L12.7537 24.7769H12.5972H12.4407L12.4389 24.0214C12.437 23.3145 12.4362 23.2635 12.4259 23.2289C12.3863 23.0968 12.3068 23.0351 12.1763 23.0351C12.0072 23.0351 11.9043 23.1432 11.8819 23.3445C11.8776 23.3833 11.8753 23.6413 11.8753 24.0904V24.7769H11.7219H11.5686L11.5665 24.0244C11.5646 23.3282 11.5637 23.2693 11.5538 23.2356C11.5295 23.1533 11.4802 23.0902 11.4156 23.0583C11.376 23.0388 11.3723 23.0382 11.2975 23.0382C11.2205 23.0382 11.22 23.0382 11.1734 23.0614C11.1169 23.0894 11.0797 23.1282 11.049 23.1911C11.003 23.2854 11.0062 23.2253 11.0042 24.0429L11.0024 24.7769H10.8459H10.6894L10.6895 23.7866ZM19.6651 24.6329V24.4882H20.0245H20.3838V23.3773V22.2664L20.0352 22.2641L19.6866 22.2617L19.6847 22.1186L19.6832 21.9755H20.187H20.6909V23.2311V24.4867H21.0503H21.4097V24.6313V24.776H20.5373H19.665L19.6651 24.6329ZM0 19.8028C0 19.8028 0.336924 18.3888 0.74865 16.6623L1.49722 13.5234H2.61133H3.72543L4.47343 16.6593C4.88482 18.384 5.22151 19.7972 5.22164 19.7998C5.22216 19.8024 4.94332 19.8044 4.6029 19.8043L3.98395 19.8042L3.84319 19.1811C3.76578 18.8384 3.69712 18.5352 3.69062 18.5072L3.67879 18.4564H2.61086H1.54292L1.53728 18.4826C1.53418 18.497 1.46556 18.8003 1.38482 19.1566L1.23804 19.8044H0.618984C0.27851 19.8044 0 19.8028 0 19.8028ZM3.41559 17.3163C3.41553 17.3121 3.25289 16.5899 3.05417 15.7114L2.69286 14.1142L2.61241 14.1116C2.53978 14.109 2.53165 14.1106 2.52864 14.1208C2.52602 14.1292 1.82798 17.1763 1.80098 17.2969L1.79516 17.3231H2.60544C3.24962 17.3231 3.41566 17.3213 3.41559 17.3163ZM5.46145 16.6622V13.5199L6.8084 13.5226L8.15534 13.5252L8.24839 13.5387C8.4269 13.5645 8.58195 13.6034 8.71132 13.6548C8.88061 13.7222 9.08802 13.8441 9.21508 13.9509C9.56895 14.2484 9.78942 14.6853 9.83541 15.1803C9.84363 15.2688 9.84347 15.6344 9.83489 15.725C9.78079 16.3156 9.4992 16.8148 9.05198 17.1129C8.78447 17.2913 8.53898 17.3797 8.19486 17.4216C8.12359 17.4303 8.00984 17.4321 7.37943 17.4342L6.64682 17.4368V18.6213V19.8057H6.05398H5.46114V16.6635L5.46145 16.6622ZM7.93199 16.2958C8.30641 16.2575 8.56403 16.0441 8.6411 15.7083C8.65461 15.6495 8.66044 15.3803 8.64997 15.303C8.62657 15.1314 8.55916 14.9958 8.43841 14.8774C8.34352 14.7844 8.23633 14.7237 8.10253 14.6871C7.97906 14.6534 7.96889 14.653 7.28148 14.6529L6.64716 14.6528V15.4775V16.3023H7.25779C7.64246 16.3023 7.89191 16.2996 7.93199 16.2958ZM16.7715 16.6623V13.5203H17.3643H17.9572V16.0961V18.6719H19.3794H20.8016V19.2381V19.8044H18.7865H16.7715V16.6623ZM21.7108 16.6623V13.5203H22.3037H22.8965V16.0961V18.6719H24.3187H25.7409V19.2381V19.8044H23.7259H21.7108V16.6623ZM13.067 19.7791C12.0616 19.7074 11.1764 19.2014 10.687 18.4185C10.4195 17.9906 10.2834 17.5567 10.2405 16.9947C10.2297 16.8532 10.2316 16.4161 10.2435 16.2724C10.2913 15.6988 10.4472 15.2453 10.7516 14.7941C11.0126 14.4073 11.3852 14.0815 11.8198 13.8602C12.1724 13.6807 12.556 13.5718 12.9994 13.5253C13.1217 13.5125 13.5474 13.5145 13.6752 13.5285C14.7859 13.6507 15.6614 14.2438 16.1115 15.179C16.2852 15.54 16.3743 15.896 16.4027 16.3422C16.4109 16.4701 16.4108 16.8373 16.4021 16.967C16.3738 17.4143 16.2839 17.7741 16.1108 18.1333C15.8908 18.5901 15.5719 18.9596 15.1529 19.2434C14.6922 19.5555 14.1578 19.7355 13.5611 19.7795C13.4624 19.7868 13.1714 19.787 13.067 19.7791ZM13.6015 18.4875C13.9051 18.451 14.2001 18.3313 14.4186 18.1559C14.4963 18.0935 14.6288 17.9634 14.6909 17.8884C14.8466 17.7005 14.9628 17.4596 15.0108 17.2251C15.0445 17.0604 15.0477 17.0104 15.0477 16.65C15.0477 16.372 15.046 16.3041 15.0372 16.235C14.999 15.9355 14.9008 15.6867 14.7323 15.4624C14.677 15.3888 14.5308 15.2369 14.4493 15.1683C14.2268 14.9812 13.9438 14.8591 13.6322 14.8157C13.5346 14.8022 13.2322 14.7966 13.1136 14.8062C12.7608 14.8347 12.4415 14.9584 12.2039 15.1586C12.1364 15.2155 11.9696 15.3847 11.923 15.4437C11.7797 15.6248 11.6739 15.8575 11.6265 16.0961C11.5986 16.2369 11.5957 16.2898 11.5957 16.6562C11.5957 16.954 11.5975 17.0121 11.6068 17.0839C11.6455 17.373 11.7413 17.6123 11.9076 17.8348C11.9626 17.9084 12.1353 18.0851 12.2162 18.1505C12.4591 18.3469 12.7579 18.4629 13.0981 18.4929C13.1812 18.5003 13.5261 18.4965 13.6015 18.4875ZM28.7021 19.7819C28.6037 19.7751 28.507 19.765 28.4146 19.7517C27.5059 19.6214 26.7258 19.1345 26.28 18.4195C26.0259 18.0122 25.8858 17.584 25.838 17.0685C25.8269 16.9492 25.827 16.3559 25.8381 16.2377C25.8842 15.7465 26.0098 15.3482 26.2437 14.9513C26.4809 14.5486 26.8178 14.21 27.2276 13.9623C27.6389 13.7137 28.1437 13.5582 28.6621 13.5204C28.7731 13.5124 29.0555 13.5124 29.1659 13.5205C29.7237 13.5616 30.2492 13.7333 30.6864 14.0174C30.8583 14.1292 31.0308 14.2714 31.1813 14.4257C31.528 14.7812 31.7855 15.2471 31.9053 15.736C31.9812 16.0457 32.0046 16.2929 31.9993 16.7277C31.9953 17.0524 31.9841 17.1799 31.9389 17.4194C31.8885 17.6861 31.8183 17.8968 31.697 18.1457C31.5583 18.4301 31.4004 18.6561 31.1902 18.8711C30.9546 19.1121 30.7075 19.292 30.4038 19.4436C30.0168 19.6367 29.6109 19.7458 29.1536 19.7795C29.0767 19.7851 28.7733 19.7865 28.7021 19.7819ZM29.1935 18.4874C29.5015 18.45 29.7728 18.3412 30.0045 18.1622C30.0781 18.1053 30.2696 17.9112 30.3245 17.8377C30.4623 17.6533 30.5591 17.4412 30.6036 17.2257C30.634 17.0785 30.6433 16.9428 30.6433 16.65C30.6433 16.3572 30.634 16.2215 30.6036 16.0743C30.5547 15.8376 30.4375 15.5953 30.2823 15.4098C30.2099 15.3233 30.0608 15.1805 29.9768 15.1173C29.7353 14.9354 29.4489 14.8315 29.1198 14.8062C28.9961 14.7967 28.7005 14.8021 28.6045 14.8156C28.2875 14.8603 28.0121 14.9782 27.788 15.1652C27.7198 15.222 27.5467 15.4022 27.4996 15.4652C27.362 15.6493 27.2678 15.8574 27.2224 16.0776C27.1897 16.2362 27.1877 16.2686 27.1877 16.65C27.1877 17.0314 27.1896 17.0635 27.2224 17.2224C27.2703 17.4555 27.3777 17.6834 27.5268 17.8687C27.5912 17.9487 27.7676 18.1215 27.842 18.1773C28.0836 18.3588 28.3747 18.4666 28.6942 18.4931C28.781 18.5003 29.119 18.4965 29.1935 18.4874Z"/>
</g>
</svg>
