<svg width="2425" height="1007" viewBox="0 0 2425 1007" fill="none" xmlns="http://www.w3.org/2000/svg">
<rect width="2425" height="1007" fill="#0A0A0A"/>
<path d="M1502.11 347.967C1637.73 340.346 1572.61 414.967 1826.61 413.467C2080.61 411.967 1897.11 290.967 2211.61 309.467C2526.11 327.967 2353.22 255.467 2268.61 255.467C2184 255.467 2136.11 277.467 1996.61 238.967C1857.11 200.467 2154.4 157.108 1867.11 139.467C1579.82 121.825 1762.61 268.967 1571.11 277.467C1379.61 285.967 1366.49 355.588 1502.11 347.967Z" fill="#1B1B1B"/>
<path d="M146.156 290.464C281.779 282.843 181.545 334.497 435.545 332.997C689.545 331.497 733.045 238.497 1047.55 256.997C1362.05 275.497 1414.93 209.997 1258.04 209.997C1101.16 209.997 1057.55 144.497 918.045 105.997C778.545 67.4974 757.945 227.639 470.656 209.997C183.368 192.356 353.045 142.998 161.545 151.497C-29.9549 159.997 10.5333 298.085 146.156 290.464Z" fill="#121212"/>
<path d="M2108.44 823.965C1972.81 816.344 1903.58 889 1649.58 887.5C1395.58 886 1954.58 823.965 1369.08 823.965C1139 823.965 1077.05 831.998 1079.05 806.348C1080.73 784.73 1179.55 771.998 1221.05 769.498C1262.55 766.998 1246.05 748.998 1191.08 749C1136.12 749.002 1210.58 666 1417.08 666C1623.58 666 1522.08 749 1754.58 749C1987.08 749 1901.55 676.498 2093.05 684.998C2284.55 693.498 2244.06 831.585 2108.44 823.965Z" fill="#121212"/>
<path d="M368.822 700.343C513.551 719.586 565.682 856.881 851.43 709.735C1137.18 562.59 1635.14 598.674 1845.8 631.185C2153.24 678.631 2093 581 2017.16 523.36C1941.32 465.721 1824.6 469.408 1824.6 469.408C1641.24 446.475 1495.32 549.903 1037.63 484.646C579.937 419.39 498.391 436.845 354.39 484.646C23.8627 594.364 224.092 681.1 368.822 700.343Z" fill="#1B1B1B"/>
<path d="M594.657 100C594.657 100 594.657 105.091 596.354 106.788C598.051 108.485 603.143 108.485 603.143 108.485C603.143 108.485 598.051 108.485 596.354 110.182C594.657 111.879 594.657 116.971 594.657 116.971C594.657 116.971 594.657 111.879 592.96 110.182C591.263 108.485 586.172 108.485 586.172 108.485C586.172 108.485 591.263 108.485 592.96 106.788C594.657 105.091 594.657 100 594.657 100Z" fill="#ABABAB" fill-opacity="0.4"/>
<path d="M785.486 243C785.486 243 785.486 248.091 787.183 249.788C788.88 251.485 793.971 251.485 793.971 251.485C793.971 251.485 788.88 251.485 787.183 253.182C785.486 254.879 785.486 259.971 785.486 259.971C785.486 259.971 785.486 254.879 783.789 253.182C782.092 251.485 777.001 251.485 777.001 251.485C777.001 251.485 782.092 251.485 783.789 249.788C785.486 248.091 785.486 243 785.486 243Z" fill="#ABABAB" fill-opacity="0.4"/>
<path d="M678.485 467C678.485 467 678.485 472.091 680.182 473.788C681.879 475.485 686.971 475.485 686.971 475.485C686.971 475.485 681.879 475.485 680.182 477.182C678.485 478.879 678.485 483.971 678.485 483.971C678.485 483.971 678.485 478.879 676.788 477.182C675.091 475.485 670 475.485 670 475.485C670 475.485 675.091 475.485 676.788 473.788C678.485 472.091 678.485 467 678.485 467Z" fill="#ABABAB" fill-opacity="0.4"/>
<path d="M1002.49 100C1002.49 100 1002.49 105.091 1004.18 106.788C1005.88 108.485 1010.97 108.485 1010.97 108.485C1010.97 108.485 1005.88 108.485 1004.18 110.182C1002.49 111.879 1002.49 116.971 1002.49 116.971C1002.49 116.971 1002.49 111.879 1000.79 110.182C999.091 108.485 994 108.485 994 108.485C994 108.485 999.091 108.485 1000.79 106.788C1002.49 105.091 1002.49 100 1002.49 100Z" fill="#ABABAB" fill-opacity="0.4"/>
<path d="M940.486 609C940.486 609 940.486 614.091 942.183 615.788C943.88 617.485 948.971 617.485 948.971 617.485C948.971 617.485 943.88 617.485 942.183 619.182C940.486 620.879 940.486 625.971 940.486 625.971C940.486 625.971 940.486 620.879 938.789 619.182C937.092 617.485 932.001 617.485 932.001 617.485C932.001 617.485 937.092 617.485 938.789 615.788C940.486 614.091 940.486 609 940.486 609Z" fill="#ABABAB" fill-opacity="0.4"/>
<path d="M777.486 720C777.486 720 777.486 725.091 779.183 726.788C780.88 728.485 785.971 728.485 785.971 728.485C785.971 728.485 780.88 728.485 779.183 730.182C777.486 731.879 777.486 736.971 777.486 736.971C777.486 736.971 777.486 731.879 775.789 730.182C774.092 728.485 769.001 728.485 769.001 728.485C769.001 728.485 774.092 728.485 775.789 726.788C777.486 725.091 777.486 720 777.486 720Z" fill="#ABABAB" fill-opacity="0.4"/>
<path d="M970.485 790C970.485 790 970.485 795.091 972.182 796.788C973.879 798.485 978.971 798.485 978.971 798.485C978.971 798.485 973.879 798.485 972.182 800.182C970.485 801.879 970.485 806.971 970.485 806.971C970.485 806.971 970.485 801.879 968.788 800.182C967.091 798.485 962 798.485 962 798.485C962 798.485 967.091 798.485 968.788 796.788C970.485 795.091 970.485 790 970.485 790Z" fill="#ABABAB" fill-opacity="0.4"/>
<path d="M994.485 333C994.485 333 994.485 338.091 996.182 339.788C997.879 341.485 1002.97 341.485 1002.97 341.485C1002.97 341.485 997.879 341.485 996.182 343.182C994.485 344.879 994.485 349.971 994.485 349.971C994.485 349.971 994.485 344.879 992.788 343.182C991.091 341.485 986 341.485 986 341.485C986 341.485 991.091 341.485 992.788 339.788C994.485 338.091 994.485 333 994.485 333Z" fill="#ABABAB" fill-opacity="0.4"/>
<path d="M1292.49 168C1292.49 168 1292.49 173.091 1294.18 174.788C1295.88 176.485 1300.97 176.485 1300.97 176.485C1300.97 176.485 1295.88 176.485 1294.18 178.182C1292.49 179.879 1292.49 184.971 1292.49 184.971C1292.49 184.971 1292.49 179.879 1290.79 178.182C1289.09 176.485 1284 176.485 1284 176.485C1284 176.485 1289.09 176.485 1290.79 174.788C1292.49 173.091 1292.49 168 1292.49 168Z" fill="#ABABAB" fill-opacity="0.4"/>
<path d="M1556.49 316C1556.49 316 1556.49 321.091 1558.18 322.788C1559.88 324.485 1564.97 324.485 1564.97 324.485C1564.97 324.485 1559.88 324.485 1558.18 326.182C1556.49 327.879 1556.49 332.971 1556.49 332.971C1556.49 332.971 1556.49 327.879 1554.79 326.182C1553.09 324.485 1548 324.485 1548 324.485C1548 324.485 1553.09 324.485 1554.79 322.788C1556.49 321.091 1556.49 316 1556.49 316Z" fill="#ABABAB" fill-opacity="0.4"/>
<path d="M1712.49 496C1712.49 496 1712.49 501.091 1714.18 502.788C1715.88 504.485 1720.97 504.485 1720.97 504.485C1720.97 504.485 1715.88 504.485 1714.18 506.182C1712.49 507.879 1712.49 512.971 1712.49 512.971C1712.49 512.971 1712.49 507.879 1710.79 506.182C1709.09 504.485 1704 504.485 1704 504.485C1704 504.485 1709.09 504.485 1710.79 502.788C1712.49 501.091 1712.49 496 1712.49 496Z" fill="#ABABAB" fill-opacity="0.4"/>
<path d="M1275.49 405C1275.49 405 1275.49 410.091 1277.18 411.788C1278.88 413.485 1283.97 413.485 1283.97 413.485C1283.97 413.485 1278.88 413.485 1277.18 415.182C1275.49 416.879 1275.49 421.971 1275.49 421.971C1275.49 421.971 1275.49 416.879 1273.79 415.182C1272.09 413.485 1267 413.485 1267 413.485C1267 413.485 1272.09 413.485 1273.79 411.788C1275.49 410.091 1275.49 405 1275.49 405Z" fill="#ABABAB" fill-opacity="0.4"/>
<path d="M1466.49 720C1466.49 720 1466.49 725.091 1468.18 726.788C1469.88 728.485 1474.97 728.485 1474.97 728.485C1474.97 728.485 1469.88 728.485 1468.18 730.182C1466.49 731.879 1466.49 736.971 1466.49 736.971C1466.49 736.971 1466.49 731.879 1464.79 730.182C1463.09 728.485 1458 728.485 1458 728.485C1458 728.485 1463.09 728.485 1464.79 726.788C1466.49 725.091 1466.49 720 1466.49 720Z" fill="#ABABAB" fill-opacity="0.4"/>
<path d="M1777.49 848C1777.49 848 1777.49 853.091 1779.18 854.788C1780.88 856.485 1785.97 856.485 1785.97 856.485C1785.97 856.485 1780.88 856.485 1779.18 858.182C1777.49 859.879 1777.49 864.971 1777.49 864.971C1777.49 864.971 1777.49 859.879 1775.79 858.182C1774.09 856.485 1769 856.485 1769 856.485C1769 856.485 1774.09 856.485 1775.79 854.788C1777.49 853.091 1777.49 848 1777.49 848Z" fill="#ABABAB" fill-opacity="0.4"/>
<path d="M603.485 871C603.485 871 603.485 876.091 605.182 877.788C606.879 879.485 611.971 879.485 611.971 879.485C611.971 879.485 606.879 879.485 605.182 881.182C603.485 882.879 603.485 887.971 603.485 887.971C603.485 887.971 603.485 882.879 601.788 881.182C600.091 879.485 595 879.485 595 879.485C595 879.485 600.091 879.485 601.788 877.788C603.485 876.091 603.485 871 603.485 871Z" fill="#ABABAB" fill-opacity="0.4"/>
<path d="M209.314 316C209.314 316 209.314 321.091 211.011 322.788C212.708 324.485 217.799 324.485 217.799 324.485C217.799 324.485 212.708 324.485 211.011 326.182C209.314 327.879 209.314 332.971 209.314 332.971C209.314 332.971 209.314 327.879 207.617 326.182C205.92 324.485 200.829 324.485 200.829 324.485C200.829 324.485 205.92 324.485 207.617 322.788C209.314 321.091 209.314 316 209.314 316Z" fill="#ABABAB" fill-opacity="0.4"/>
<path d="M365.314 496C365.314 496 365.314 501.091 367.011 502.788C368.708 504.485 373.799 504.485 373.799 504.485C373.799 504.485 368.708 504.485 367.011 506.182C365.314 507.879 365.314 512.971 365.314 512.971C365.314 512.971 365.314 507.879 363.617 506.182C361.92 504.485 356.829 504.485 356.829 504.485C356.829 504.485 361.92 504.485 363.617 502.788C365.314 501.091 365.314 496 365.314 496Z" fill="#ABABAB" fill-opacity="0.4"/>
<path d="M119.314 720C119.314 720 119.314 725.091 121.011 726.788C122.708 728.485 127.799 728.485 127.799 728.485C127.799 728.485 122.708 728.485 121.011 730.182C119.314 731.879 119.314 736.971 119.314 736.971C119.314 736.971 119.314 731.879 117.617 730.182C115.92 728.485 110.829 728.485 110.829 728.485C110.829 728.485 115.92 728.485 117.617 726.788C119.314 725.091 119.314 720 119.314 720Z" fill="#ABABAB" fill-opacity="0.4"/>
<path d="M430.314 848C430.314 848 430.314 853.091 432.011 854.788C433.708 856.485 438.799 856.485 438.799 856.485C438.799 856.485 433.708 856.485 432.011 858.182C430.314 859.879 430.314 864.971 430.314 864.971C430.314 864.971 430.314 859.879 428.617 858.182C426.92 856.485 421.829 856.485 421.829 856.485C421.829 856.485 426.92 856.485 428.617 854.788C430.314 853.091 430.314 848 430.314 848Z" fill="#ABABAB" fill-opacity="0.4"/>
<path d="M1910.49 100C1910.49 100 1910.49 105.091 1912.18 106.788C1913.88 108.485 1918.97 108.485 1918.97 108.485C1918.97 108.485 1913.88 108.485 1912.18 110.182C1910.49 111.879 1910.49 116.971 1910.49 116.971C1910.49 116.971 1910.49 111.879 1908.79 110.182C1907.09 108.485 1902 108.485 1902 108.485C1902 108.485 1907.09 108.485 1908.79 106.788C1910.49 105.091 1910.49 100 1910.49 100Z" fill="#ABABAB" fill-opacity="0.4"/>
<path d="M2101.31 243C2101.31 243 2101.31 248.091 2103.01 249.788C2104.71 251.485 2109.8 251.485 2109.8 251.485C2109.8 251.485 2104.71 251.485 2103.01 253.182C2101.31 254.879 2101.31 259.971 2101.31 259.971C2101.31 259.971 2101.31 254.879 2099.62 253.182C2097.92 251.485 2092.83 251.485 2092.83 251.485C2092.83 251.485 2097.92 251.485 2099.62 249.788C2101.31 248.091 2101.31 243 2101.31 243Z" fill="#ABABAB" fill-opacity="0.4"/>
<path d="M1994.31 467C1994.31 467 1994.31 472.091 1996.01 473.788C1997.71 475.485 2002.8 475.485 2002.8 475.485C2002.8 475.485 1997.71 475.485 1996.01 477.182C1994.31 478.879 1994.31 483.971 1994.31 483.971C1994.31 483.971 1994.31 478.879 1992.62 477.182C1990.92 475.485 1985.83 475.485 1985.83 475.485C1985.83 475.485 1990.92 475.485 1992.62 473.788C1994.31 472.091 1994.31 467 1994.31 467Z" fill="#ABABAB" fill-opacity="0.4"/>
<path d="M2318.31 100C2318.31 100 2318.31 105.091 2320.01 106.788C2321.71 108.485 2326.8 108.485 2326.8 108.485C2326.8 108.485 2321.71 108.485 2320.01 110.182C2318.31 111.879 2318.31 116.971 2318.31 116.971C2318.31 116.971 2318.31 111.879 2316.62 110.182C2314.92 108.485 2309.83 108.485 2309.83 108.485C2309.83 108.485 2314.92 108.485 2316.62 106.788C2318.31 105.091 2318.31 100 2318.31 100Z" fill="#ABABAB" fill-opacity="0.4"/>
<path d="M2256.31 609C2256.31 609 2256.31 614.091 2258.01 615.788C2259.71 617.485 2264.8 617.485 2264.8 617.485C2264.8 617.485 2259.71 617.485 2258.01 619.182C2256.31 620.879 2256.31 625.971 2256.31 625.971C2256.31 625.971 2256.31 620.879 2254.62 619.182C2252.92 617.485 2247.83 617.485 2247.83 617.485C2247.83 617.485 2252.92 617.485 2254.62 615.788C2256.31 614.091 2256.31 609 2256.31 609Z" fill="#ABABAB" fill-opacity="0.4"/>
<path d="M2093.31 720C2093.31 720 2093.31 725.091 2095.01 726.788C2096.71 728.485 2101.8 728.485 2101.8 728.485C2101.8 728.485 2096.71 728.485 2095.01 730.182C2093.31 731.879 2093.31 736.971 2093.31 736.971C2093.31 736.971 2093.31 731.879 2091.62 730.182C2089.92 728.485 2084.83 728.485 2084.83 728.485C2084.83 728.485 2089.92 728.485 2091.62 726.788C2093.31 725.091 2093.31 720 2093.31 720Z" fill="#ABABAB" fill-opacity="0.4"/>
<path d="M2286.31 790C2286.31 790 2286.31 795.091 2288.01 796.788C2289.71 798.485 2294.8 798.485 2294.8 798.485C2294.8 798.485 2289.71 798.485 2288.01 800.182C2286.31 801.879 2286.31 806.971 2286.31 806.971C2286.31 806.971 2286.31 801.879 2284.62 800.182C2282.92 798.485 2277.83 798.485 2277.83 798.485C2277.83 798.485 2282.92 798.485 2284.62 796.788C2286.31 795.091 2286.31 790 2286.31 790Z" fill="#ABABAB" fill-opacity="0.4"/>
<path d="M2310.31 333C2310.31 333 2310.31 338.091 2312.01 339.788C2313.71 341.485 2318.8 341.485 2318.8 341.485C2318.8 341.485 2313.71 341.485 2312.01 343.182C2310.31 344.879 2310.31 349.971 2310.31 349.971C2310.31 349.971 2310.31 344.879 2308.62 343.182C2306.92 341.485 2301.83 341.485 2301.83 341.485C2301.83 341.485 2306.92 341.485 2308.62 339.788C2310.31 338.091 2310.31 333 2310.31 333Z" fill="#ABABAB" fill-opacity="0.4"/>
<path d="M1919.31 871C1919.31 871 1919.31 876.091 1921.01 877.788C1922.71 879.485 1927.8 879.485 1927.8 879.485C1927.8 879.485 1922.71 879.485 1921.01 881.182C1919.31 882.879 1919.31 887.971 1919.31 887.971C1919.31 887.971 1919.31 882.879 1917.62 881.182C1915.92 879.485 1910.83 879.485 1910.83 879.485C1910.83 879.485 1915.92 879.485 1917.62 877.788C1919.31 876.091 1919.31 871 1919.31 871Z" fill="#ABABAB" fill-opacity="0.4"/>
<path d="M1825.73 155C1825.73 155 1825.73 162.637 1828.27 165.182C1830.82 167.728 1838.46 167.728 1838.46 167.728C1838.46 167.728 1830.82 167.728 1828.27 170.274C1825.73 172.819 1825.73 180.456 1825.73 180.456C1825.73 180.456 1825.73 172.819 1823.18 170.274C1820.64 167.728 1813 167.728 1813 167.728C1813 167.728 1820.64 167.728 1823.18 165.182C1825.73 162.637 1825.73 155 1825.73 155Z" fill="#C4C4C4" fill-opacity="0.4"/>
<path d="M534.728 124C534.728 124 534.728 131.637 537.274 134.182C539.819 136.728 547.456 136.728 547.456 136.728C547.456 136.728 539.819 136.728 537.274 139.274C534.728 141.819 534.728 149.456 534.728 149.456C534.728 149.456 534.728 141.819 532.182 139.274C529.637 136.728 522 136.728 522 136.728C522 136.728 529.637 136.728 532.182 134.182C534.728 131.637 534.728 124 534.728 124Z" fill="#C4C4C4" fill-opacity="0.4"/>
<path d="M1457.73 136C1457.73 136 1457.73 143.637 1460.27 146.182C1462.82 148.728 1470.46 148.728 1470.46 148.728C1470.46 148.728 1462.82 148.728 1460.27 151.274C1457.73 153.819 1457.73 161.456 1457.73 161.456C1457.73 161.456 1457.73 153.819 1455.18 151.274C1452.64 148.728 1445 148.728 1445 148.728C1445 148.728 1452.64 148.728 1455.18 146.182C1457.73 143.637 1457.73 136 1457.73 136Z" fill="#C4C4C4" fill-opacity="0.4"/>
<path d="M1160.73 276C1160.73 276 1160.73 283.637 1163.27 286.182C1165.82 288.728 1173.46 288.728 1173.46 288.728C1173.46 288.728 1165.82 288.728 1163.27 291.274C1160.73 293.819 1160.73 301.456 1160.73 301.456C1160.73 301.456 1160.73 293.819 1158.18 291.274C1155.64 288.728 1148 288.728 1148 288.728C1148 288.728 1155.64 288.728 1158.18 286.182C1160.73 283.637 1160.73 276 1160.73 276Z" fill="#C4C4C4" fill-opacity="0.4"/>
<path d="M1088.73 703C1088.73 703 1088.73 710.637 1091.27 713.182C1093.82 715.728 1101.46 715.728 1101.46 715.728C1101.46 715.728 1093.82 715.728 1091.27 718.274C1088.73 720.819 1088.73 728.456 1088.73 728.456C1088.73 728.456 1088.73 720.819 1086.18 718.274C1083.64 715.728 1076 715.728 1076 715.728C1076 715.728 1083.64 715.728 1086.18 713.182C1088.73 710.637 1088.73 703 1088.73 703Z" fill="#C4C4C4" fill-opacity="0.4"/>
<path d="M590.728 541C590.728 541 590.728 548.637 593.274 551.182C595.819 553.728 603.456 553.728 603.456 553.728C603.456 553.728 595.819 553.728 593.274 556.274C590.728 558.819 590.728 566.456 590.728 566.456C590.728 566.456 590.728 558.819 588.182 556.274C585.637 553.728 578 553.728 578 553.728C578 553.728 585.637 553.728 588.182 551.182C590.728 548.637 590.728 541 590.728 541Z" fill="#C4C4C4" fill-opacity="0.4"/>
<path d="M1469.73 892C1469.73 892 1469.73 899.637 1472.27 902.182C1474.82 904.728 1482.46 904.728 1482.46 904.728C1482.46 904.728 1474.82 904.728 1472.27 907.274C1469.73 909.819 1469.73 917.456 1469.73 917.456C1469.73 917.456 1469.73 909.819 1467.18 907.274C1464.64 904.728 1457 904.728 1457 904.728C1457 904.728 1464.64 904.728 1467.18 902.182C1469.73 899.637 1469.73 892 1469.73 892Z" fill="#C4C4C4" fill-opacity="0.4"/>
<path d="M559.728 790C559.728 790 559.728 797.637 562.274 800.182C564.819 802.728 572.456 802.728 572.456 802.728C572.456 802.728 564.819 802.728 562.274 805.274C559.728 807.819 559.728 815.456 559.728 815.456C559.728 815.456 559.728 807.819 557.182 805.274C554.637 802.728 547 802.728 547 802.728C547 802.728 554.637 802.728 557.182 800.182C559.728 797.637 559.728 790 559.728 790Z" fill="#C4C4C4" fill-opacity="0.4"/>
<path d="M1798.73 691C1798.73 691 1798.73 698.637 1801.27 701.182C1803.82 703.728 1811.46 703.728 1811.46 703.728C1811.46 703.728 1803.82 703.728 1801.27 706.274C1798.73 708.819 1798.73 716.456 1798.73 716.456C1798.73 716.456 1798.73 708.819 1796.18 706.274C1793.64 703.728 1786 703.728 1786 703.728C1786 703.728 1793.64 703.728 1796.18 701.182C1798.73 698.637 1798.73 691 1798.73 691Z" fill="#C4C4C4" fill-opacity="0.4"/>
<path d="M521.728 863C521.728 863 521.728 870.637 524.274 873.182C526.819 875.728 534.456 875.728 534.456 875.728C534.456 875.728 526.819 875.728 524.274 878.274C521.728 880.819 521.728 888.456 521.728 888.456C521.728 888.456 521.728 880.819 519.182 878.274C516.637 875.728 509 875.728 509 875.728C509 875.728 516.637 875.728 519.182 873.182C521.728 870.637 521.728 863 521.728 863Z" fill="#C4C4C4" fill-opacity="0.4"/>
<path d="M1151.73 422C1151.73 422 1151.73 429.637 1154.27 432.182C1156.82 434.728 1164.46 434.728 1164.46 434.728C1164.46 434.728 1156.82 434.728 1154.27 437.274C1151.73 439.819 1151.73 447.456 1151.73 447.456C1151.73 447.456 1151.73 439.819 1149.18 437.274C1146.64 434.728 1139 434.728 1139 434.728C1139 434.728 1146.64 434.728 1149.18 432.182C1151.73 429.637 1151.73 422 1151.73 422Z" fill="#C4C4C4" fill-opacity="0.4"/>
<path d="M496.728 155C496.728 155 496.728 162.637 499.274 165.182C501.819 167.728 509.456 167.728 509.456 167.728C509.456 167.728 501.819 167.728 499.274 170.274C496.728 172.819 496.728 180.456 496.728 180.456C496.728 180.456 496.728 172.819 494.182 170.274C491.637 167.728 484 167.728 484 167.728C484 167.728 491.637 167.728 494.182 165.182C496.728 162.637 496.728 155 496.728 155Z" fill="#C4C4C4" fill-opacity="0.4"/>
<path d="M128.728 136C128.728 136 128.728 143.637 131.274 146.182C133.819 148.728 141.456 148.728 141.456 148.728C141.456 148.728 133.819 148.728 131.274 151.274C128.728 153.819 128.728 161.456 128.728 161.456C128.728 161.456 128.728 153.819 126.182 151.274C123.637 148.728 116 148.728 116 148.728C116 148.728 123.637 148.728 126.182 146.182C128.728 143.637 128.728 136 128.728 136Z" fill="#C4C4C4" fill-opacity="0.4"/>
<path d="M140.728 892C140.728 892 140.728 899.637 143.274 902.182C145.819 904.728 153.456 904.728 153.456 904.728C153.456 904.728 145.819 904.728 143.274 907.274C140.728 909.819 140.728 917.456 140.728 917.456C140.728 917.456 140.728 909.819 138.182 907.274C135.637 904.728 128 904.728 128 904.728C128 904.728 135.637 904.728 138.182 902.182C140.728 899.637 140.728 892 140.728 892Z" fill="#C4C4C4" fill-opacity="0.4"/>
<path d="M469.728 691C469.728 691 469.728 698.637 472.274 701.182C474.819 703.728 482.456 703.728 482.456 703.728C482.456 703.728 474.819 703.728 472.274 706.274C469.728 708.819 469.728 716.456 469.728 716.456C469.728 716.456 469.728 708.819 467.182 706.274C464.637 703.728 457 703.728 457 703.728C457 703.728 464.637 703.728 467.182 701.182C469.728 698.637 469.728 691 469.728 691Z" fill="#C4C4C4" fill-opacity="0.4"/>
<path d="M2019.73 124C2019.73 124 2019.73 131.637 2022.27 134.182C2024.82 136.728 2032.46 136.728 2032.46 136.728C2032.46 136.728 2024.82 136.728 2022.27 139.274C2019.73 141.819 2019.73 149.456 2019.73 149.456C2019.73 149.456 2019.73 141.819 2017.18 139.274C2014.64 136.728 2007 136.728 2007 136.728C2007 136.728 2014.64 136.728 2017.18 134.182C2019.73 131.637 2019.73 124 2019.73 124Z" fill="#C4C4C4" fill-opacity="0.4"/>
<path d="M2075.73 541C2075.73 541 2075.73 548.637 2078.27 551.182C2080.82 553.728 2088.46 553.728 2088.46 553.728C2088.46 553.728 2080.82 553.728 2078.27 556.274C2075.73 558.819 2075.73 566.456 2075.73 566.456C2075.73 566.456 2075.73 558.819 2073.18 556.274C2070.64 553.728 2063 553.728 2063 553.728C2063 553.728 2070.64 553.728 2073.18 551.182C2075.73 548.637 2075.73 541 2075.73 541Z" fill="#C4C4C4" fill-opacity="0.4"/>
<path d="M2044.73 790C2044.73 790 2044.73 797.637 2047.27 800.182C2049.82 802.728 2057.46 802.728 2057.46 802.728C2057.46 802.728 2049.82 802.728 2047.27 805.274C2044.73 807.819 2044.73 815.456 2044.73 815.456C2044.73 815.456 2044.73 807.819 2042.18 805.274C2039.64 802.728 2032 802.728 2032 802.728C2032 802.728 2039.64 802.728 2042.18 800.182C2044.73 797.637 2044.73 790 2044.73 790Z" fill="#C4C4C4" fill-opacity="0.4"/>
<path d="M2006.73 863C2006.73 863 2006.73 870.637 2009.27 873.182C2011.82 875.728 2019.46 875.728 2019.46 875.728C2019.46 875.728 2011.82 875.728 2009.27 878.274C2006.73 880.819 2006.73 888.456 2006.73 888.456C2006.73 888.456 2006.73 880.819 2004.18 878.274C2001.64 875.728 1994 875.728 1994 875.728C1994 875.728 2001.64 875.728 2004.18 873.182C2006.73 870.637 2006.73 863 2006.73 863Z" fill="#C4C4C4" fill-opacity="0.4"/>
</svg>