<svg width="454" height="196" viewBox="0 0 454 196" fill="none" xmlns="http://www.w3.org/2000/svg">
<path d="M74.3892 1.90769H68.6456V0.635897H74.3892V1.90769ZM80.5416 1.90769H74.1826V0.635897H80.5416V1.90769ZM86.6939 1.90769H80.3349V0.635897H86.6939V1.90769ZM92.8463 1.90769H86.4873V0.635897H92.8463V1.90769ZM98.9986 1.90769H92.6396V0.635897H98.9986V1.90769ZM105.151 1.90769H98.792V0.635897H105.151V1.90769ZM110.688 1.90769H104.944V0.635897H110.688V1.90769ZM129.76 1.90769H124.017V0.635897H129.76V1.90769ZM135.913 1.90769H129.554V0.635897H135.913V1.90769ZM142.065 1.90769H135.706V0.635897H142.065V1.90769ZM148.217 1.90769H141.858V0.635897H148.217V1.90769ZM154.37 1.90769H148.011V0.635897H154.37V1.90769ZM160.522 1.90769H154.163V0.635897H160.522V1.90769ZM166.059 1.90769H160.315V0.635897H166.059V1.90769ZM185.131 1.90769H179.388V0.635897H185.131V1.90769ZM191.284 1.90769H184.925V0.635897H191.284V1.90769ZM197.436 1.90769H191.077V0.635897H197.436V1.90769ZM203.588 1.90769H197.229V0.635897H203.588V1.90769ZM209.741 1.90769H203.382V0.635897H209.741V1.90769ZM215.893 1.90769H209.534V0.635897H215.893V1.90769ZM221.43 1.90769H215.686V0.635897H221.43V1.90769ZM239.887 1.90769H234.759V0.635897H239.887V1.90769ZM295.258 1.90769H290.13V0.635897H295.258V1.90769ZM351.245 1.90769H345.501V0.635897H351.245V1.90769ZM357.397 1.90769H351.038V0.635897H357.397V1.90769ZM363.549 1.90769H357.19V0.635897H363.549V1.90769ZM369.702 1.90769H363.343V0.635897H369.702V1.90769ZM375.854 1.90769H369.495V0.635897H375.854V1.90769ZM382.006 1.90769H375.647V0.635897H382.006V1.90769ZM387.543 1.90769H381.8V0.635897H387.543V1.90769ZM64.3035 2.76923H65.8112V15.0769H64.3035V2.76923ZM86.6939 13.9077H80.9503V12.6359H86.6939V13.9077ZM92.8463 13.9077H86.4873V12.6359H92.8463V13.9077ZM98.3832 13.9077H92.6396V12.6359H98.3832V13.9077ZM114.752 2.76923H116.259V15.0769H114.752V2.76923ZM118.444 2.76923H119.952V15.0769H118.444V2.76923ZM142.065 13.9077H136.321V12.6359H142.065V13.9077ZM148.217 13.9077H141.858V12.6359H148.217V13.9077ZM154.37 13.9077H148.011V12.6359H154.37V13.9077ZM159.907 13.9077H154.163V12.6359H159.907V13.9077ZM170.123 2.76923H171.63V15.0769H170.123V2.76923ZM173.815 2.76923H175.323V15.0769H173.815V2.76923ZM197.436 13.9077H191.693V12.6359H197.436V13.9077ZM203.588 13.9077H197.229V12.6359H203.588V13.9077ZM209.125 13.9077H203.382V12.6359H209.125V13.9077ZM225.494 2.76923H227.001V15.0769H225.494V2.76923ZM229.186 2.76923H230.694V15.0769H229.186V2.76923ZM244.993 13.1487L240.691 4.2L241.957 3.62051L246.26 12.5692L244.993 13.1487ZM285.788 2.76923H287.296V15.0769H285.788V2.76923ZM300.364 13.1487L296.062 4.2L297.329 3.62051L301.631 12.5692L300.364 13.1487ZM341.159 2.76923H342.667V15.0769H341.159V2.76923ZM363.549 13.9077H357.806V12.6359H363.549V13.9077ZM369.702 13.9077H363.343V12.6359H369.702V13.9077ZM375.239 13.9077H369.495V12.6359H375.239V13.9077ZM390.378 2.76923H391.885V15.0769H390.378V2.76923ZM64.3035 14.7692H65.8112V27.0769H64.3035V14.7692ZM76.6082 14.7692H78.1159V27.0769H76.6082V14.7692ZM101.218 14.7692H102.725V27.0769H101.218V14.7692ZM114.752 14.7692H116.259V27.0769H114.752V14.7692ZM118.444 14.7692H119.952V27.0769H118.444V14.7692ZM131.979 14.7692H133.487V27.0769H131.979V14.7692ZM163.9 20.4103C163.9 19.8462 163.833 19.3316 163.7 18.8667C163.57 18.3983 163.363 17.9419 163.08 17.4974C162.799 17.0496 162.423 16.5692 161.951 16.0564L162.895 15.2051C163.462 15.694 163.939 16.1966 164.326 16.7128C164.715 17.2291 165.015 17.7932 165.223 18.4051C165.435 19.0137 165.541 19.6821 165.541 20.4103C165.541 21.1385 165.435 21.8085 165.223 22.4205C165.015 23.0291 164.715 23.5915 164.326 24.1077C163.939 24.6239 163.462 25.1265 162.895 25.6154L161.951 24.7641C162.45 24.2205 162.84 23.7282 163.121 23.2872C163.401 22.8462 163.601 22.4 163.721 21.9487C163.84 21.4974 163.9 20.9846 163.9 20.4103ZM170.123 14.7692H171.63V27.0769H170.123V14.7692ZM173.815 14.7692H175.323V27.0769H173.815V14.7692ZM187.35 14.7692H188.858V27.0769H187.35V14.7692ZM211.96 14.7692H213.467V27.0769H211.96V14.7692ZM225.494 14.7692H227.001V27.0769H225.494V14.7692ZM229.186 14.7692H230.694V27.0769H229.186V14.7692ZM242.722 14.7692H244.229V27.0769H242.722V14.7692ZM285.788 14.7692H287.296V27.0769H285.788V14.7692ZM298.093 14.7692H299.6V27.0769H298.093V14.7692ZM341.159 14.7692H342.667V27.0769H341.159V14.7692ZM353.464 14.7692H354.971V27.0769H353.464V14.7692ZM378.073 14.7692H379.581V27.0769H378.073V14.7692ZM390.378 14.7692H391.885V27.0769H390.378V14.7692ZM64.3035 26.7692H65.8112V39.0769H64.3035V26.7692ZM76.6082 26.7692H78.1159V39.0769H76.6082V26.7692ZM86.6939 37.9077H80.9503V36.6359H86.6939V37.9077ZM92.8463 37.9077H86.4873V36.6359H92.8463V37.9077ZM98.3832 37.9077H92.6396V36.6359H98.3832V37.9077ZM101.218 26.7692H102.725V39.0769H101.218V26.7692ZM114.752 26.7692H116.259V39.0769H114.752V26.7692ZM118.444 26.7692H119.952V39.0769H118.444V26.7692ZM131.979 26.7692H133.487V39.0769H131.979V26.7692ZM142.065 37.9077H136.321V36.6359H142.065V37.9077ZM148.217 37.9077H141.858V36.6359H148.217V37.9077ZM154.37 37.9077H148.011V36.6359H154.37V37.9077ZM159.907 37.9077H154.163V36.6359H159.907V37.9077ZM163.9 32.4103C163.9 31.8462 163.833 31.3316 163.7 30.8667C163.57 30.3983 163.363 29.9419 163.08 29.4974C162.799 29.0496 162.423 28.5692 161.951 28.0564L162.895 27.2051C163.462 27.694 163.939 28.1966 164.326 28.7128C164.715 29.2291 165.015 29.7932 165.223 30.4051C165.435 31.0137 165.541 31.6821 165.541 32.4103C165.541 33.1385 165.435 33.8085 165.223 34.4205C165.015 35.0291 164.715 35.5915 164.326 36.1077C163.939 36.6239 163.462 37.1265 162.895 37.6154L161.951 36.7641C162.45 36.2205 162.84 35.7282 163.121 35.2872C163.401 34.8462 163.601 34.4 163.721 33.9487C163.84 33.4974 163.9 32.9846 163.9 32.4103ZM170.123 26.7692H171.63V39.0769H170.123V26.7692ZM173.815 26.7692H175.323V39.0769H173.815V26.7692ZM187.35 26.7692H188.858V39.0769H187.35V26.7692ZM211.96 26.7692H213.467V39.0769H211.96V26.7692ZM225.494 26.7692H227.001V39.0769H225.494V26.7692ZM229.186 26.7692H230.694V39.0769H229.186V26.7692ZM242.722 26.7692H244.229V39.0769H242.722V26.7692ZM285.788 26.7692H287.296V39.0769H285.788V26.7692ZM298.093 26.7692H299.6V39.0769H298.093V26.7692ZM341.159 26.7692H342.667V39.0769H341.159V26.7692ZM353.464 26.7692H354.971V39.0769H353.464V26.7692ZM378.073 26.7692H379.581V39.0769H378.073V26.7692ZM390.378 26.7692H391.885V39.0769H390.378V26.7692ZM64.3035 38.7692H65.8112V51.0769H64.3035V38.7692ZM86.6939 49.9077H80.9503V48.6359H86.6939V49.9077ZM92.8463 49.9077H86.4873V48.6359H92.8463V49.9077ZM98.3832 49.9077H92.6396V48.6359H98.3832V49.9077ZM114.752 38.7692H116.259V51.0769H114.752V38.7692ZM118.444 38.7692H119.952V51.0769H118.444V38.7692ZM142.065 49.9077H136.321V48.6359H142.065V49.9077ZM148.217 49.9077H141.858V48.6359H148.217V49.9077ZM154.37 49.9077H148.011V48.6359H154.37V49.9077ZM160.522 49.9077H154.163V48.6359H160.522V49.9077ZM166.059 49.9077H160.315V48.6359H166.059V49.9077ZM170.123 38.7692H171.63V51.0769H170.123V38.7692ZM173.815 38.7692H175.323V51.0769H173.815V38.7692ZM187.35 38.7692H188.858V51.0769H187.35V38.7692ZM211.96 38.7692H213.467V51.0769H211.96V38.7692ZM225.494 38.7692H227.001V51.0769H225.494V38.7692ZM229.186 38.7692H230.694V51.0769H229.186V38.7692ZM242.722 38.7692H244.229V51.0769H242.722V38.7692ZM285.788 38.7692H287.296V51.0769H285.788V38.7692ZM298.093 38.7692H299.6V51.0769H298.093V38.7692ZM341.159 38.7692H342.667V51.0769H341.159V38.7692ZM353.464 38.7692H354.971V51.0769H353.464V38.7692ZM378.073 38.7692H379.581V51.0769H378.073V38.7692ZM390.378 38.7692H391.885V51.0769H390.378V38.7692ZM64.3035 50.7692H65.8112V63.0769H64.3035V50.7692ZM76.6082 50.7692H78.1159V63.0769H76.6082V50.7692ZM101.218 50.7692H102.725V63.0769H101.218V50.7692ZM114.752 50.7692H116.259V63.0769H114.752V50.7692ZM118.444 50.7692H119.952V63.0769H118.444V50.7692ZM131.979 50.7692H133.487V63.0769H131.979V50.7692ZM175.046 50.7692H176.553V63.0769H175.046V50.7692ZM187.35 50.7692H188.858V63.0769H187.35V50.7692ZM211.96 50.7692H213.467V63.0769H211.96V50.7692ZM225.494 50.7692H227.001V63.0769H225.494V50.7692ZM229.186 50.7692H230.694V63.0769H229.186V50.7692ZM242.722 50.7692H244.229V63.0769H242.722V50.7692ZM285.788 50.7692H287.296V63.0769H285.788V50.7692ZM298.093 50.7692H299.6V63.0769H298.093V50.7692ZM341.159 50.7692H342.667V63.0769H341.159V50.7692ZM353.464 50.7692H354.971V63.0769H353.464V50.7692ZM378.073 50.7692H379.581V63.0769H378.073V50.7692ZM390.378 50.7692H391.885V63.0769H390.378V50.7692ZM64.3035 62.7692H65.8112V75.0769H64.3035V62.7692ZM76.6082 62.7692H78.1159V75.0769H76.6082V62.7692ZM101.218 62.7692H102.725V75.0769H101.218V62.7692ZM114.752 62.7692H116.259V75.0769H114.752V62.7692ZM118.444 62.7692H119.952V75.0769H118.444V62.7692ZM131.979 62.7692H133.487V75.0769H131.979V62.7692ZM175.046 62.7692H176.553V75.0769H175.046V62.7692ZM187.35 62.7692H188.858V75.0769H187.35V62.7692ZM197.436 73.9077H191.693V72.6359H197.436V73.9077ZM203.588 73.9077H197.229V72.6359H203.588V73.9077ZM209.125 73.9077H203.382V72.6359H209.125V73.9077ZM211.96 62.7692H213.467V75.0769H211.96V62.7692ZM225.494 62.7692H227.001V75.0769H225.494V62.7692ZM229.186 62.7692H230.694V75.0769H229.186V62.7692ZM242.722 62.7692H244.229V75.0769H242.722V62.7692ZM252.807 73.9077H247.064V72.6359H252.807V73.9077ZM258.96 73.9077H252.601V72.6359H258.96V73.9077ZM265.112 73.9077H258.753V72.6359H265.112V73.9077ZM270.649 73.9077H264.905V72.6359H270.649V73.9077ZM277.022 64.2L272.719 73.1487L271.452 72.5692L275.765 63.6205L277.022 64.2ZM281.907 73.1487L277.605 64.2L278.871 63.6205L283.174 72.5692L281.907 73.1487ZM285.788 62.7692H287.296V75.0769H285.788V62.7692ZM298.093 62.7692H299.6V75.0769H298.093V62.7692ZM308.178 73.9077H302.435V72.6359H308.178V73.9077ZM314.331 73.9077H307.972V72.6359H314.331V73.9077ZM320.483 73.9077H314.124V72.6359H320.483V73.9077ZM326.02 73.9077H320.276V72.6359H326.02V73.9077ZM332.393 64.2L328.09 73.1487L326.824 72.5692L331.136 63.6205L332.393 64.2ZM337.278 73.1487L332.976 64.2L334.243 63.6205L338.545 72.5692L337.278 73.1487ZM341.159 62.7692H342.667V75.0769H341.159V62.7692ZM353.464 62.7692H354.971V75.0769H353.464V62.7692ZM363.549 73.9077H357.806V72.6359H363.549V73.9077ZM369.702 73.9077H363.343V72.6359H369.702V73.9077ZM375.239 73.9077H369.495V72.6359H375.239V73.9077ZM378.073 62.7692H379.581V75.0769H378.073V62.7692ZM390.378 62.7692H391.885V75.0769H390.378V62.7692ZM64.3035 74.7692H65.8112V87.0769H64.3035V74.7692ZM73.9944 76.2L69.6918 85.1487L68.4251 84.5692L72.7379 75.6205L73.9944 76.2ZM109.642 85.1487L105.339 76.2L106.606 75.6205L110.908 84.5692L109.642 85.1487ZM114.752 74.7692H116.259V87.0769H114.752V74.7692ZM118.444 74.7692H119.952V87.0769H118.444V74.7692ZM129.365 76.2L125.063 85.1487L123.796 84.5692L128.109 75.6205L129.365 76.2ZM177.318 85.1487L173.015 76.2L174.282 75.6205L178.584 84.5692L177.318 85.1487ZM185.131 85.9077H179.388V84.6359H185.131V85.9077ZM191.284 85.9077H184.925V84.6359H191.284V85.9077ZM197.436 85.9077H191.077V84.6359H197.436V85.9077ZM203.588 85.9077H197.229V84.6359H203.588V85.9077ZM209.741 85.9077H203.382V84.6359H209.741V85.9077ZM215.893 85.9077H209.534V84.6359H215.893V85.9077ZM221.43 85.9077H215.686V84.6359H221.43V85.9077ZM227.803 76.2L223.5 85.1487L222.234 84.5692L226.547 75.6205L227.803 76.2ZM232.689 85.1487L228.386 76.2L229.653 75.6205L233.955 84.5692L232.689 85.1487ZM240.503 85.9077H234.759V84.6359H240.503V85.9077ZM246.655 85.9077H240.296V84.6359H246.655V85.9077ZM252.807 85.9077H246.448V84.6359H252.807V85.9077ZM258.96 85.9077H252.601V84.6359H258.96V85.9077ZM265.112 85.9077H258.753V84.6359H265.112V85.9077ZM271.264 85.9077H264.905V84.6359H271.264V85.9077ZM276.801 85.9077H271.058V84.6359H276.801V85.9077ZM283.174 76.2L278.871 85.1487L277.605 84.5692L281.918 75.6205L283.174 76.2ZM288.06 85.1487L283.757 76.2L285.024 75.6205L289.326 84.5692L288.06 85.1487ZM295.874 85.9077H290.13V84.6359H295.874V85.9077ZM302.026 85.9077H295.667V84.6359H302.026V85.9077ZM308.178 85.9077H301.819V84.6359H308.178V85.9077ZM314.331 85.9077H307.972V84.6359H314.331V85.9077ZM320.483 85.9077H314.124V84.6359H320.483V85.9077ZM326.635 85.9077H320.276V84.6359H326.635V85.9077ZM332.172 85.9077H326.429V84.6359H332.172V85.9077ZM338.545 76.2L334.243 85.1487L332.976 84.5692L337.289 75.6205L338.545 76.2ZM343.431 85.1487L339.128 76.2L340.395 75.6205L344.697 84.5692L343.431 85.1487ZM351.245 85.9077H345.501V84.6359H351.245V85.9077ZM357.397 85.9077H351.038V84.6359H357.397V85.9077ZM363.549 85.9077H357.19V84.6359H363.549V85.9077ZM369.702 85.9077H363.343V84.6359H369.702V85.9077ZM375.854 85.9077H369.495V84.6359H375.854V85.9077ZM382.006 85.9077H375.647V84.6359H382.006V85.9077ZM387.543 85.9077H381.8V84.6359H387.543V85.9077ZM393.916 76.2L389.614 85.1487L388.347 84.5692L392.66 75.6205L393.916 76.2ZM12.8658 109.908H7.1222V108.636H12.8658V109.908ZM19.0181 109.908H12.6592V108.636H19.0181V109.908ZM25.1705 109.908H18.8115V108.636H25.1705V109.908ZM31.3228 109.908H24.9638V108.636H31.3228V109.908ZM37.4752 109.908H31.1162V108.636H37.4752V109.908ZM43.6275 109.908H37.2685V108.636H43.6275V109.908ZM49.1645 109.908H43.4209V108.636H49.1645V109.908ZM68.2369 109.908H62.4933V108.636H68.2369V109.908ZM74.3892 109.908H68.0302V108.636H74.3892V109.908ZM80.5416 109.908H74.1826V108.636H80.5416V109.908ZM86.6939 109.908H80.3349V108.636H86.6939V109.908ZM92.8463 109.908H86.4873V108.636H92.8463V109.908ZM98.9986 109.908H92.6396V108.636H98.9986V109.908ZM104.536 109.908H98.792V108.636H104.536V109.908ZM123.608 109.908H117.864V108.636H123.608V109.908ZM129.76 109.908H123.401V108.636H129.76V109.908ZM135.913 109.908H129.554V108.636H135.913V109.908ZM142.065 109.908H135.706V108.636H142.065V109.908ZM148.217 109.908H141.858V108.636H148.217V109.908ZM154.37 109.908H148.011V108.636H154.37V109.908ZM159.907 109.908H154.163V108.636H159.907V109.908ZM178.979 109.908H173.235V108.636H178.979V109.908ZM185.131 109.908H178.772V108.636H185.131V109.908ZM191.284 109.908H184.925V108.636H191.284V109.908ZM197.436 109.908H191.077V108.636H197.436V109.908ZM203.588 109.908H197.229V108.636H203.588V109.908ZM209.741 109.908H203.382V108.636H209.741V109.908ZM215.278 109.908H209.534V108.636H215.278V109.908ZM234.35 109.908H228.607V108.636H234.35V109.908ZM240.503 109.908H234.144V108.636H240.503V109.908ZM246.655 109.908H240.296V108.636H246.655V109.908ZM252.807 109.908H246.448V108.636H252.807V109.908ZM258.96 109.908H252.601V108.636H258.96V109.908ZM265.112 109.908H258.753V108.636H265.112V109.908ZM270.649 109.908H264.905V108.636H270.649V109.908ZM301.411 109.908H296.282V108.636H301.411V109.908ZM357.397 109.908H351.653V108.636H357.397V109.908ZM363.549 109.908H357.19V108.636H363.549V109.908ZM369.702 109.908H363.343V108.636H369.702V109.908ZM375.854 109.908H369.495V108.636H375.854V109.908ZM382.006 109.908H375.647V108.636H382.006V109.908ZM388.159 109.908H381.8V108.636H388.159V109.908ZM393.696 109.908H387.952V108.636H393.696V109.908ZM412.768 109.908H407.025V108.636H412.768V109.908ZM418.92 109.908H412.561V108.636H418.92V109.908ZM425.073 109.908H418.714V108.636H425.073V109.908ZM431.225 109.908H424.866V108.636H431.225V109.908ZM437.378 109.908H431.019V108.636H437.378V109.908ZM442.914 109.908H437.171V108.636H442.914V109.908ZM6.31857 112.2L2.01601 121.149L0.749339 120.569L5.06216 111.621L6.31857 112.2ZM25.1705 121.908H19.4269V120.636H25.1705V121.908ZM31.3228 121.908H24.9638V120.636H31.3228V121.908ZM37.4752 121.908H31.1162V120.636H37.4752V121.908ZM43.0121 121.908H37.2685V120.636H43.0121V121.908ZM54.2707 121.149L49.9681 112.2L51.2348 111.621L55.5373 120.569L54.2707 121.149ZM58.1512 110.769H59.6589V123.077H58.1512V110.769ZM80.5416 121.908H74.798V120.636H80.5416V121.908ZM86.6939 121.908H80.3349V120.636H86.6939V121.908ZM92.2309 121.908H86.4873V120.636H92.2309V121.908ZM108.599 110.769H110.107V123.077H108.599V110.769ZM112.292 110.769H113.799V123.077H112.292V110.769ZM163.97 110.769H165.478V123.077H163.97V110.769ZM167.663 110.769H169.17V123.077H167.663V110.769ZM191.284 121.908H185.54V120.636H191.284V121.908ZM197.436 121.908H191.077V120.636H197.436V121.908ZM203.588 121.908H197.229V120.636H203.588V121.908ZM209.125 121.908H203.382V120.636H209.125V121.908ZM226.382 112.892L222.967 120H220.926L217.5 112.892H219.3L221.941 118.41L224.582 112.892H226.382ZM246.655 121.908H240.911V120.636H246.655V121.908ZM252.807 121.908H246.448V120.636H252.807V121.908ZM258.96 121.908H252.601V120.636H258.96V121.908ZM264.496 121.908H258.753V120.636H264.496V121.908ZM275.755 121.149L271.452 112.2L272.719 111.621L277.022 120.569L275.755 121.149ZM291.94 110.769H293.448V123.077H291.94V110.769ZM306.517 121.149L302.214 112.2L303.481 111.621L307.783 120.569L306.517 121.149ZM347.311 110.769H348.819V123.077H347.311V110.769ZM369.702 121.908H363.958V120.636H369.702V121.908ZM375.854 121.908H369.495V120.636H375.854V121.908ZM381.391 121.908H375.647V120.636H381.391V121.908ZM397.759 110.769H399.267V123.077H397.759V110.769ZM401.452 110.769H402.959V123.077H401.452V110.769ZM425.073 121.908H419.329V120.636H425.073V121.908ZM431.225 121.908H424.866V120.636H431.225V121.908ZM436.762 121.908H431.019V120.636H436.762V121.908ZM448.021 121.149L443.718 112.2L444.985 111.621L449.287 120.569L448.021 121.149ZM2.78011 122.769H4.2878V135.077H2.78011V122.769ZM15.0848 122.769H16.5925V135.077H15.0848V122.769ZM48.1183 133.149L43.8157 124.2L45.0824 123.621L49.385 132.569L48.1183 133.149ZM55.5373 124.2L51.2348 133.149L49.9681 132.569L54.2809 123.621L55.5373 124.2ZM58.1512 122.769H59.6589V135.077H58.1512V122.769ZM70.4559 122.769H71.9636V135.077H70.4559V122.769ZM95.0653 122.769H96.573V135.077H95.0653V122.769ZM108.599 122.769H110.107V135.077H108.599V122.769ZM112.292 122.769H113.799V135.077H112.292V122.769ZM127.056 122.769H128.564V135.077H127.056V122.769ZM130.749 122.769H132.256V135.077H130.749V122.769ZM145.513 122.769H147.021V135.077H145.513V122.769ZM149.206 122.769H150.713V135.077H149.206V122.769ZM163.97 122.769H165.478V135.077H163.97V122.769ZM167.663 122.769H169.17V135.077H167.663V122.769ZM181.198 122.769H182.706V135.077H181.198V122.769ZM214.232 133.149L209.929 124.2L211.196 123.621L215.498 132.569L214.232 133.149ZM221.651 124.2L217.348 133.149L216.081 132.569L220.394 123.621L221.651 124.2ZM224.264 122.769H225.772V135.077H224.264V122.769ZM236.569 122.769H238.077V135.077H236.569V122.769ZM275.601 124.892L272.186 132H270.145L266.719 124.892H268.519L271.16 130.41L273.801 124.892H275.601ZM291.94 122.769H293.448V135.077H291.94V122.769ZM304.245 122.769H305.753V135.077H304.245V122.769ZM347.311 122.769H348.819V135.077H347.311V122.769ZM359.616 122.769H361.124V135.077H359.616V122.769ZM384.225 122.769H385.733V135.077H384.225V122.769ZM397.759 122.769H399.267V135.077H397.759V122.769ZM401.452 122.769H402.959V135.077H401.452V122.769ZM414.987 122.769H416.495V135.077H414.987V122.769ZM440.755 128.41C440.755 127.846 440.689 127.332 440.555 126.867C440.426 126.398 440.219 125.942 439.935 125.497C439.655 125.05 439.279 124.569 438.807 124.056L439.75 123.205C440.318 123.694 440.795 124.197 441.181 124.713C441.571 125.229 441.87 125.793 442.079 126.405C442.291 127.014 442.397 127.682 442.397 128.41C442.397 129.138 442.291 129.809 442.079 130.421C441.87 131.029 441.571 131.591 441.181 132.108C440.795 132.624 440.318 133.126 439.75 133.615L438.807 132.764C439.306 132.221 439.696 131.728 439.976 131.287C440.256 130.846 440.456 130.4 440.576 129.949C440.696 129.497 440.755 128.985 440.755 128.41ZM451.901 122.769H453.409V135.077H451.901V122.769ZM2.78011 134.769H4.2878V147.077H2.78011V134.769ZM15.0848 134.769H16.5925V147.077H15.0848V134.769ZM58.1512 134.769H59.6589V147.077H58.1512V134.769ZM70.4559 134.769H71.9636V147.077H70.4559V134.769ZM80.5416 145.908H74.798V144.636H80.5416V145.908ZM86.6939 145.908H80.3349V144.636H86.6939V145.908ZM92.2309 145.908H86.4873V144.636H92.2309V145.908ZM95.0653 134.769H96.573V147.077H95.0653V134.769ZM108.599 134.769H110.107V147.077H108.599V134.769ZM112.292 134.769H113.799V147.077H112.292V134.769ZM127.056 134.769H128.564V147.077H127.056V134.769ZM130.749 134.769H132.256V147.077H130.749V134.769ZM145.513 134.769H147.021V147.077H145.513V134.769ZM149.206 134.769H150.713V147.077H149.206V134.769ZM163.97 134.769H165.478V147.077H163.97V134.769ZM167.663 134.769H169.17V147.077H167.663V134.769ZM181.198 134.769H182.706V147.077H181.198V134.769ZM191.284 145.908H185.54V144.636H191.284V145.908ZM196.821 145.908H191.077V144.636H196.821V145.908ZM224.264 134.769H225.772V147.077H224.264V134.769ZM236.569 134.769H238.077V147.077H236.569V134.769ZM246.655 145.908H240.911V144.636H246.655V145.908ZM252.807 145.908H246.448V144.636H252.807V145.908ZM258.96 145.908H252.601V144.636H258.96V145.908ZM265.112 145.908H258.753V144.636H265.112V145.908ZM270.649 145.908H264.905V144.636H270.649V145.908ZM291.94 134.769H293.448V147.077H291.94V134.769ZM304.245 134.769H305.753V147.077H304.245V134.769ZM347.311 134.769H348.819V147.077H347.311V134.769ZM359.616 134.769H361.124V147.077H359.616V134.769ZM369.702 145.908H363.958V144.636H369.702V145.908ZM375.854 145.908H369.495V144.636H375.854V145.908ZM381.391 145.908H375.647V144.636H381.391V145.908ZM384.225 134.769H385.733V147.077H384.225V134.769ZM397.759 134.769H399.267V147.077H397.759V134.769ZM401.452 134.769H402.959V147.077H401.452V134.769ZM414.987 134.769H416.495V147.077H414.987V134.769ZM425.073 145.908H419.329V144.636H425.073V145.908ZM430.61 145.908H424.866V144.636H430.61V145.908ZM436.983 136.2L432.68 145.149L431.413 144.569L435.726 135.621L436.983 136.2ZM449.287 136.2L444.985 145.149L443.718 144.569L448.031 135.621L449.287 136.2ZM2.78011 146.769H4.2878V159.077H2.78011V146.769ZM15.0848 146.769H16.5925V159.077H15.0848V146.769ZM31.3228 157.908H25.5792V156.636H31.3228V157.908ZM37.4752 157.908H31.1162V156.636H37.4752V157.908ZM43.6275 157.908H37.2685V156.636H43.6275V157.908ZM49.1645 157.908H43.4209V156.636H49.1645V157.908ZM58.1512 146.769H59.6589V159.077H58.1512V146.769ZM80.5416 157.908H74.798V156.636H80.5416V157.908ZM86.6939 157.908H80.3349V156.636H86.6939V157.908ZM92.2309 157.908H86.4873V156.636H92.2309V157.908ZM108.599 146.769H110.107V159.077H108.599V146.769ZM112.292 146.769H113.799V159.077H112.292V146.769ZM127.056 146.769H128.564V159.077H127.056V146.769ZM130.749 146.769H132.256V159.077H130.749V146.769ZM141.45 157.908H136.321V156.636H141.45V157.908ZM145.513 146.769H147.021V159.077H145.513V146.769ZM149.206 146.769H150.713V159.077H149.206V146.769ZM163.97 146.769H165.478V159.077H163.97V146.769ZM167.663 146.769H169.17V159.077H167.663V146.769ZM191.284 157.908H185.54V156.636H191.284V157.908ZM196.821 157.908H191.077V156.636H196.821V157.908ZM199.655 146.769H201.163V159.077H199.655V146.769ZM224.264 146.769H225.772V159.077H224.264V146.769ZM234.35 157.908H228.607V156.636H234.35V157.908ZM240.503 157.908H234.144V156.636H240.503V157.908ZM246.655 157.908H240.296V156.636H246.655V157.908ZM252.807 157.908H246.448V156.636H252.807V157.908ZM258.344 157.908H252.601V156.636H258.344V157.908ZM273.483 146.769H274.991V159.077H273.483V146.769ZM291.94 146.769H293.448V159.077H291.94V146.769ZM304.245 146.769H305.753V159.077H304.245V146.769ZM347.311 146.769H348.819V159.077H347.311V146.769ZM369.702 157.908H363.958V156.636H369.702V157.908ZM375.854 157.908H369.495V156.636H375.854V157.908ZM381.391 157.908H375.647V156.636H381.391V157.908ZM397.759 146.769H399.267V159.077H397.759V146.769ZM401.452 146.769H402.959V159.077H401.452V146.769ZM425.073 157.908H419.329V156.636H425.073V157.908ZM430.61 157.908H424.866V156.636H430.61V157.908ZM439.945 152.41C439.945 152.985 440.005 153.497 440.125 153.949C440.244 154.4 440.444 154.846 440.725 155.287C441.005 155.728 441.395 156.221 441.894 156.764L440.95 157.615C440.383 157.126 439.904 156.624 439.514 156.108C439.128 155.591 438.829 155.029 438.617 154.421C438.408 153.809 438.304 153.138 438.304 152.41C438.304 151.682 438.408 151.014 438.617 150.405C438.829 149.793 439.128 149.229 439.514 148.713C439.904 148.197 440.383 147.694 440.95 147.205L441.894 148.056C441.422 148.569 441.044 149.05 440.761 149.497C440.48 149.942 440.273 150.398 440.14 150.867C440.01 151.332 439.945 151.846 439.945 152.41ZM2.78011 158.769H4.2878V171.077H2.78011V158.769ZM15.0848 158.769H16.5925V171.077H15.0848V158.769ZM29.6613 169.149L25.3587 160.2L26.6254 159.621L30.9279 168.569L29.6613 169.149ZM36.8598 169.908H31.7316V168.636H36.8598V169.908ZM54.2707 169.149L49.9681 160.2L51.2348 159.621L55.5373 168.569L54.2707 169.149ZM58.1512 158.769H59.6589V171.077H58.1512V158.769ZM70.4559 158.769H71.9636V171.077H70.4559V158.769ZM95.0653 158.769H96.573V171.077H95.0653V158.769ZM108.599 158.769H110.107V171.077H108.599V158.769ZM112.292 158.769H113.799V171.077H112.292V158.769ZM125.827 158.769H127.335V171.077H125.827V158.769ZM150.436 158.769H151.944V171.077H150.436V158.769ZM163.97 158.769H165.478V171.077H163.97V158.769ZM167.663 158.769H169.17V171.077H167.663V158.769ZM181.198 158.769H182.706V171.077H181.198V158.769ZM261.179 158.769H262.686V171.077H261.179V158.769ZM273.483 158.769H274.991V171.077H273.483V158.769ZM291.94 158.769H293.448V171.077H291.94V158.769ZM304.245 158.769H305.753V171.077H304.245V158.769ZM347.311 158.769H348.819V171.077H347.311V158.769ZM359.616 158.769H361.124V171.077H359.616V158.769ZM384.225 158.769H385.733V171.077H384.225V158.769ZM397.759 158.769H399.267V171.077H397.759V158.769ZM401.452 158.769H402.959V171.077H401.452V158.769ZM414.987 158.769H416.495V171.077H414.987V158.769ZM435.716 169.149L431.413 160.2L432.68 159.621L436.983 168.569L435.716 169.149ZM448.021 169.149L443.718 160.2L444.985 159.621L449.287 168.569L448.021 169.149ZM2.78011 170.769H4.2878V183.077H2.78011V170.769ZM15.0848 170.769H16.5925V183.077H15.0848V170.769ZM25.1705 181.908H19.4269V180.636H25.1705V181.908ZM31.3228 181.908H24.9638V180.636H31.3228V181.908ZM36.8598 181.908H31.1162V180.636H36.8598V181.908ZM39.6942 170.769H41.2019V183.077H39.6942V170.769ZM53.2281 170.769H54.7358V183.077H53.2281V170.769ZM56.9204 170.769H58.4281V183.077H56.9204V170.769ZM70.4559 170.769H71.9636V183.077H70.4559V170.769ZM95.0653 170.769H96.573V183.077H95.0653V170.769ZM108.599 170.769H110.107V183.077H108.599V170.769ZM112.292 170.769H113.799V183.077H112.292V170.769ZM125.827 170.769H127.335V183.077H125.827V170.769ZM150.436 170.769H151.944V183.077H150.436V170.769ZM163.97 170.769H165.478V183.077H163.97V170.769ZM167.663 170.769H169.17V183.077H167.663V170.769ZM181.198 170.769H182.706V183.077H181.198V170.769ZM191.284 181.908H185.54V180.636H191.284V181.908ZM197.436 181.908H191.077V180.636H197.436V181.908ZM203.588 181.908H197.229V180.636H203.588V181.908ZM209.125 181.908H203.382V180.636H209.125V181.908ZM215.498 172.2L211.196 181.149L209.929 180.569L214.242 171.621L215.498 172.2ZM220.384 181.149L216.081 172.2L217.348 171.621L221.651 180.569L220.384 181.149ZM227.803 172.2L223.5 181.149L222.234 180.569L226.547 171.621L227.803 172.2ZM232.689 181.149L228.386 172.2L229.653 171.621L233.955 180.569L232.689 181.149ZM240.503 181.908H234.759V180.636H240.503V181.908ZM246.655 181.908H240.296V180.636H246.655V181.908ZM252.807 181.908H246.448V180.636H252.807V181.908ZM258.344 181.908H252.601V180.636H258.344V181.908ZM261.179 170.769H262.686V183.077H261.179V170.769ZM273.483 170.769H274.991V183.077H273.483V170.769ZM291.94 170.769H293.448V183.077H291.94V170.769ZM304.245 170.769H305.753V183.077H304.245V170.769ZM314.331 181.908H308.587V180.636H314.331V181.908ZM320.483 181.908H314.124V180.636H320.483V181.908ZM326.635 181.908H320.276V180.636H326.635V181.908ZM332.172 181.908H326.429V180.636H332.172V181.908ZM338.545 172.2L334.243 181.149L332.976 180.569L337.289 171.621L338.545 172.2ZM343.431 181.149L339.128 172.2L340.395 171.621L344.697 180.569L343.431 181.149ZM347.311 170.769H348.819V183.077H347.311V170.769ZM359.616 170.769H361.124V183.077H359.616V170.769ZM384.225 170.769H385.733V183.077H384.225V170.769ZM397.759 170.769H399.267V183.077H397.759V170.769ZM401.452 170.769H402.959V183.077H401.452V170.769ZM414.987 170.769H416.495V183.077H414.987V170.769ZM425.073 181.908H419.329V180.636H425.073V181.908ZM431.225 181.908H424.866V180.636H431.225V181.908ZM436.762 181.908H431.019V180.636H436.762V181.908ZM440.755 176.41C440.755 175.846 440.689 175.332 440.555 174.867C440.426 174.398 440.219 173.942 439.935 173.497C439.655 173.05 439.279 172.569 438.807 172.056L439.75 171.205C440.318 171.694 440.795 172.197 441.181 172.713C441.571 173.229 441.87 173.793 442.079 174.405C442.291 175.014 442.397 175.682 442.397 176.41C442.397 177.138 442.291 177.809 442.079 178.421C441.87 179.029 441.571 179.591 441.181 180.108C440.795 180.624 440.318 181.126 439.75 181.615L438.807 180.764C439.306 180.221 439.696 179.728 439.976 179.287C440.256 178.846 440.456 178.4 440.576 177.949C440.696 177.497 440.755 176.985 440.755 176.41ZM451.901 170.769H453.409V183.077H451.901V170.769ZM2.78011 182.769H4.2878V195.077H2.78011V182.769ZM12.8658 193.908H7.1222V192.636H12.8658V193.908ZM19.0181 193.908H12.6592V192.636H19.0181V193.908ZM25.1705 193.908H18.8115V192.636H25.1705V193.908ZM31.3228 193.908H24.9638V192.636H31.3228V193.908ZM37.4752 193.908H31.1162V192.636H37.4752V193.908ZM43.6275 193.908H37.2685V192.636H43.6275V193.908ZM49.1645 193.908H43.4209V192.636H49.1645V193.908ZM53.2281 182.769H54.7358V195.077H53.2281V182.769ZM56.9204 182.769H58.4281V195.077H56.9204V182.769ZM67.842 184.2L63.5394 193.149L62.2728 192.569L66.5856 183.621L67.842 184.2ZM103.489 193.149L99.1868 184.2L100.454 183.621L104.756 192.569L103.489 193.149ZM108.599 182.769H110.107V195.077H108.599V182.769ZM112.292 182.769H113.799V195.077H112.292V182.769ZM123.213 184.2L118.911 193.149L117.644 192.569L121.957 183.621L123.213 184.2ZM158.86 193.149L154.558 184.2L155.825 183.621L160.127 192.569L158.86 193.149ZM162.741 182.769H164.249V195.077H162.741V182.769ZM171.165 193.149L166.863 184.2L168.129 183.621L172.432 192.569L171.165 193.149ZM178.979 193.908H173.235V192.636H178.979V193.908ZM185.131 193.908H178.772V192.636H185.131V193.908ZM191.284 193.908H184.925V192.636H191.284V193.908ZM197.436 193.908H191.077V192.636H197.436V193.908ZM203.588 193.908H197.229V192.636H203.588V193.908ZM209.741 193.908H203.382V192.636H209.741V193.908ZM215.278 193.908H209.534V192.636H215.278V193.908ZM221.651 184.2L217.348 193.149L216.081 192.569L220.394 183.621L221.651 184.2ZM226.536 193.149L222.234 184.2L223.5 183.621L227.803 192.569L226.536 193.149ZM234.35 193.908H228.607V192.636H234.35V193.908ZM240.503 193.908H234.144V192.636H240.503V193.908ZM246.655 193.908H240.296V192.636H246.655V193.908ZM252.807 193.908H246.448V192.636H252.807V193.908ZM258.96 193.908H252.601V192.636H258.96V193.908ZM265.112 193.908H258.753V192.636H265.112V193.908ZM270.649 193.908H264.905V192.636H270.649V193.908ZM273.483 182.769H274.991V195.077H273.483V182.769ZM294.212 193.149L289.909 184.2L291.176 183.621L295.479 192.569L294.212 193.149ZM302.026 193.908H296.282V192.636H302.026V193.908ZM308.178 193.908H301.819V192.636H308.178V193.908ZM314.331 193.908H307.972V192.636H314.331V193.908ZM320.483 193.908H314.124V192.636H320.483V193.908ZM326.635 193.908H320.276V192.636H326.635V193.908ZM332.788 193.908H326.429V192.636H332.788V193.908ZM338.325 193.908H332.581V192.636H338.325V193.908ZM344.697 184.2L340.395 193.149L339.128 192.569L343.441 183.621L344.697 184.2ZM347.311 182.769H348.819V195.077H347.311V182.769ZM357.002 184.2L352.7 193.149L351.433 192.569L355.746 183.621L357.002 184.2ZM392.65 193.149L388.347 184.2L389.614 183.621L393.916 192.569L392.65 193.149ZM396.53 182.769H398.038V195.077H396.53V182.769ZM404.954 193.149L400.652 184.2L401.918 183.621L406.221 192.569L404.954 193.149ZM412.768 193.908H407.025V192.636H412.768V193.908ZM418.92 193.908H412.561V192.636H418.92V193.908ZM425.073 193.908H418.714V192.636H425.073V193.908ZM431.225 193.908H424.866V192.636H431.225V193.908ZM437.378 193.908H431.019V192.636H437.378V193.908ZM442.914 193.908H437.171V192.636H442.914V193.908ZM449.287 184.2L444.985 193.149L443.718 192.569L448.031 183.621L449.287 184.2Z" fill="#5ECFF7"/>
</svg>
