<svg width="84" height="49" viewBox="0 0 84 49" fill="none" xmlns="http://www.w3.org/2000/svg">
<path d="M83.9782 3.83936V45.0135C83.9782 45.9578 83.5926 46.8157 82.971 47.4318C82.358 48.045 81.5091 48.425 80.5652 48.425L4.38835 48.425C3.64014 48.425 2.94948 48.186 2.38832 47.7772C1.53362 47.1583 0.975342 46.1535 0.975342 45.0135L0.975342 3.83936C0.97822 1.95656 2.5063 0.427856 4.38835 0.427856L80.5652 0.427856C82.4501 0.427856 83.9782 1.95656 83.9782 3.83936Z" fill="#E4E4E4"/>
<path d="M82.9721 47.4347C82.3591 48.0479 81.5102 48.4279 80.5663 48.4279H4.38944C3.64122 48.4279 2.95057 48.1889 2.3894 47.7801L42.6808 18.804L82.9721 47.4347Z" fill="url(#paint0_linear)"/>
<g filter="url(#filter0_d)">
<path d="M80.5692 0.427856L4.38944 0.427856C3.64122 0.427856 2.95057 0.666806 2.3894 1.07561L39.9095 28.0596C41.4404 29.1593 43.9239 29.168 45.4607 28.074L82.9721 1.42108C82.3591 0.807872 81.5102 0.427856 80.5692 0.427856Z" fill="#F5F5F5"/>
</g>
<defs>
<filter id="filter0_d" x="-1.6106" y="-1.57214" width="88.5827" height="36.4616" filterUnits="userSpaceOnUse" color-interpolation-filters="sRGB">
<feFlood flood-opacity="0" result="BackgroundImageFix"/>
<feColorMatrix in="SourceAlpha" type="matrix" values="0 0 0 0 0 0 0 0 0 0 0 0 0 0 0 0 0 0 127 0"/>
<feOffset dy="2"/>
<feGaussianBlur stdDeviation="2"/>
<feColorMatrix type="matrix" values="0 0 0 0 0 0 0 0 0 0 0 0 0 0 0 0 0 0 0.08 0"/>
<feBlend mode="normal" in2="BackgroundImageFix" result="effect1_dropShadow"/>
<feBlend mode="normal" in="SourceGraphic" in2="effect1_dropShadow" result="shape"/>
</filter>
<linearGradient id="paint0_linear" x1="2.39093" y1="33.6146" x2="82.9726" y2="33.6146" gradientUnits="userSpaceOnUse">
<stop stop-color="#F4F4F4"/>
<stop offset="1" stop-color="#ECECEC"/>
</linearGradient>
</defs>
</svg>
