<svg width="60" height="60" viewBox="0 0 60 60" fill="none" xmlns="http://www.w3.org/2000/svg">
<path d="M22 2C22 0.895432 22.8954 0 24 0H36C37.1046 0 38 0.895431 38 2V58C38 59.1046 37.1046 60 36 60H24C22.8954 60 22 59.1046 22 58V2Z" fill="#121212"/>
<path d="M58 22C59.1046 22 60 22.8954 60 24V36C60 37.1046 59.1046 38 58 38L2 38C0.895432 38 -4.82823e-08 37.1046 0 36L5.24537e-07 24C5.72819e-07 22.8954 0.895431 22 2 22L58 22Z" fill="#121212"/>
<circle cx="30" cy="30" r="6" fill="#DCD8D8" fill-opacity="0.21"/>
</svg>
