<svg width="40" height="40" viewBox="0 0 40 40" fill="none" xmlns="http://www.w3.org/2000/svg">
<circle cx="20" cy="20" r="20" fill="url(#paint0_radial)"/>
<path d="M12.8 5.92C12.8 7.24548 11.7255 8.32 10.4 8.32C9.07452 8.32 8 7.24548 8 5.92C8 4.59452 9.07452 3.52 10.4 3.52C11.7255 3.52 12.8 4.59452 12.8 5.92Z" fill="#232323" fill-opacity="0.57"/>
<path d="M18.88 31.52C18.88 31.9105 18.8192 32.2868 18.7065 32.64C18.2326 34.1247 16.8419 35.2 15.2 35.2C14.2447 35.2 13.3744 34.836 12.7203 34.2391C11.9828 33.5662 11.52 32.5971 11.52 31.52C11.52 29.5144 13.1244 27.8836 15.1197 27.8409C15.1464 27.8403 15.1732 27.84 15.2 27.84C15.2045 27.84 15.209 27.84 15.2135 27.84C17.2397 27.8473 18.88 29.4921 18.88 31.52Z" fill="#232323" fill-opacity="0.57"/>
<path d="M22.4 28.96C22.4 30.9924 20.7524 32.64 18.72 32.64C18.7155 32.64 18.711 32.64 18.7065 32.64C16.6803 32.6327 15.04 30.9879 15.04 28.96C15.04 28.5695 15.1008 28.1932 15.2135 27.84C15.6874 26.3553 17.0781 25.28 18.72 25.28C20.7524 25.28 22.4 26.9276 22.4 28.96Z" fill="#232323" fill-opacity="0.57"/>
<path d="M24.96 33.92C24.96 34.6269 24.3869 35.2 23.68 35.2C22.9731 35.2 22.4 34.6269 22.4 33.92C22.4 33.2131 22.9731 32.64 23.68 32.64C24.3869 32.64 24.96 33.2131 24.96 33.92Z" fill="#232323" fill-opacity="0.57"/>
<path d="M35.52 21.12C35.52 21.8269 34.9469 22.4 34.24 22.4C33.5331 22.4 32.96 21.8269 32.96 21.12C32.96 20.4131 33.5331 19.84 34.24 19.84C34.9469 19.84 35.52 20.4131 35.52 21.12Z" fill="#232323" fill-opacity="0.57"/>
<path d="M30.4 16.48C30.4 18.6891 28.6091 20.48 26.4 20.48C25.3342 20.48 24.3658 20.0632 23.6488 19.3836C22.8797 18.6547 22.4 17.6234 22.4 16.48C22.4 14.6035 23.6921 13.0289 25.4351 12.5972C25.7441 12.5206 26.0673 12.48 26.4 12.48C28.6091 12.48 30.4 14.2709 30.4 16.48Z" fill="#232323" fill-opacity="0.57"/>
<path d="M25.92 14.88C25.92 16.7261 25.0267 18.3635 23.6488 19.3836C22.7183 20.0726 21.5667 20.48 20.32 20.48C17.2272 20.48 14.72 17.9728 14.72 14.88C14.72 11.7872 17.2272 9.28 20.32 9.28C22.5997 9.28 24.5613 10.6423 25.4351 12.5972C25.7467 13.2944 25.92 14.0669 25.92 14.88Z" fill="#232323" fill-opacity="0.57"/>
<path d="M30.72 5.92C30.72 7.06875 29.7888 8 28.64 8C27.4912 8 26.56 7.06875 26.56 5.92C26.56 4.77125 27.4912 3.84 28.64 3.84C29.7888 3.84 30.72 4.77125 30.72 5.92Z" fill="#232323" fill-opacity="0.57"/>
<path d="M9.92 19.84C9.92 20.9004 9.06039 21.76 8 21.76C6.93961 21.76 6.08 20.9004 6.08 19.84C6.08 18.7796 6.93961 17.92 8 17.92C9.06039 17.92 9.92 18.7796 9.92 19.84Z" fill="#232323" fill-opacity="0.57"/>
<path d="M16.32 30.56C16.32 32.5656 14.7156 34.1964 12.7203 34.2391C12.6936 34.2397 12.6668 34.24 12.64 34.24C10.6076 34.24 8.96 32.5924 8.96 30.56C8.96 28.5276 10.6076 26.88 12.64 26.88C13.5953 26.88 14.4656 27.244 15.1197 27.8409C15.8572 28.5138 16.32 29.4829 16.32 30.56Z" fill="#232323" fill-opacity="0.57"/>
<path fill-rule="evenodd" clip-rule="evenodd" d="M39.8808 17.8035C39.6423 15.6202 39.0523 13.5424 38.1687 11.628C37.8841 11.5575 37.5864 11.52 37.28 11.52C35.2476 11.52 33.6 13.1676 33.6 15.2C33.6 17.2324 35.2476 18.88 37.28 18.88C38.2955 18.88 39.2149 18.4687 39.8808 17.8035ZM0.103998 17.9478C0.0352301 18.6225 0 19.3072 0 20C0 21.4503 0.15438 22.8646 0.447604 24.2273C1.84419 23.8835 2.88 22.6227 2.88 21.12C2.88 19.4964 1.67089 18.1553 0.103998 17.9478ZM30.8823 36.783C33.8245 34.8714 36.2325 32.207 37.8335 29.0629C36.9233 27.2018 35.0114 25.92 32.8 25.92C29.7072 25.92 27.2 28.4272 27.2 31.52C27.2 33.9392 28.734 36 30.8823 36.783ZM7.27814 35.433C6.79177 35.0316 6.32469 34.6076 5.87852 34.1628C6.40106 33.5932 6.72 32.8339 6.72 32C6.72 30.2327 5.28731 28.8 3.52 28.8C3.04216 28.8 2.58879 28.9047 2.18158 29.0925M12.8 5.92C12.8 7.24548 11.7255 8.32 10.4 8.32C9.07452 8.32 8 7.24548 8 5.92C8 4.59452 9.07452 3.52 10.4 3.52C11.7255 3.52 12.8 4.59452 12.8 5.92ZM15.2 35.2C16.8419 35.2 18.2326 34.1247 18.7065 32.64L18.72 32.64C20.7524 32.64 22.4 30.9924 22.4 28.96C22.4 26.9276 20.7524 25.28 18.72 25.28C17.0781 25.28 15.6874 26.3553 15.2135 27.84L15.2 27.84C15.1732 27.84 15.1464 27.8403 15.1197 27.8409C14.4656 27.244 13.5953 26.88 12.64 26.88C10.6076 26.88 8.96 28.5276 8.96 30.56C8.96 32.5924 10.6076 34.24 12.64 34.24C12.6668 34.24 12.6936 34.2397 12.7203 34.2391C13.3744 34.836 14.2447 35.2 15.2 35.2ZM24.96 33.92C24.96 34.6269 24.3869 35.2 23.68 35.2C22.9731 35.2 22.4 34.6269 22.4 33.92C22.4 33.2131 22.9731 32.64 23.68 32.64C24.3869 32.64 24.96 33.2131 24.96 33.92ZM35.52 21.12C35.52 21.8269 34.9469 22.4 34.24 22.4C33.5331 22.4 32.96 21.8269 32.96 21.12C32.96 20.4131 33.5331 19.84 34.24 19.84C34.9469 19.84 35.52 20.4131 35.52 21.12ZM26.4 20.48C28.6091 20.48 30.4 18.6891 30.4 16.48C30.4 14.2709 28.6091 12.48 26.4 12.48C26.0673 12.48 25.7441 12.5206 25.4351 12.5972C24.5613 10.6423 22.5997 9.28 20.32 9.28C17.2272 9.28 14.72 11.7872 14.72 14.88C14.72 17.9728 17.2272 20.48 20.32 20.48C21.5667 20.48 22.7183 20.0726 23.6488 19.3836C24.3658 20.0632 25.3342 20.48 26.4 20.48ZM30.72 5.92C30.72 7.06875 29.7888 8 28.64 8C27.4912 8 26.56 7.06875 26.56 5.92C26.56 4.77125 27.4912 3.84 28.64 3.84C29.7888 3.84 30.72 4.77125 30.72 5.92ZM9.92 19.84C9.92 20.9004 9.06039 21.76 8 21.76C6.93961 21.76 6.08 20.9004 6.08 19.84C6.08 18.7796 6.93961 17.92 8 17.92C9.06039 17.92 9.92 18.7796 9.92 19.84Z" fill="#232323" fill-opacity="0.57"/>
<path fill-rule="evenodd" clip-rule="evenodd" d="M0.447604 24.2273C1.84419 23.8835 2.88 22.6227 2.88 21.12C2.88 19.4964 1.67089 18.1553 0.103998 17.9478C0.0352301 18.6225 0 19.3072 0 20C0 21.4503 0.15438 22.8646 0.447604 24.2273Z" fill="#232323" fill-opacity="0.57"/>
<path fill-rule="evenodd" clip-rule="evenodd" d="M5.87852 34.1628C6.40106 33.5932 6.72 32.8339 6.72 32C6.72 30.2327 5.28731 28.8 3.52 28.8C3.04216 28.8 2.58879 28.9047 2.18158 29.0925C3.14398 30.9747 4.39587 32.6844 5.87852 34.1628Z" fill="#232323" fill-opacity="0.57"/>
<path fill-rule="evenodd" clip-rule="evenodd" d="M27.2 31.52C27.2 33.9392 28.734 36 30.8823 36.783C33.8245 34.8714 36.2325 32.207 37.8335 29.0629C36.9233 27.2018 35.0114 25.92 32.8 25.92C29.7072 25.92 27.2 28.4272 27.2 31.52Z" fill="#232323" fill-opacity="0.57"/>
<path fill-rule="evenodd" clip-rule="evenodd" d="M38.1687 11.628C39.0523 13.5424 39.6423 15.6202 39.8808 17.8035C39.2149 18.4687 38.2955 18.88 37.28 18.88C35.2476 18.88 33.6 17.2324 33.6 15.2C33.6 13.1676 35.2476 11.52 37.28 11.52C37.5864 11.52 37.8841 11.5575 38.1687 11.628Z" fill="#232323" fill-opacity="0.57"/>
<defs>
<radialGradient id="paint0_radial" cx="0" cy="0" r="1" gradientUnits="userSpaceOnUse" gradientTransform="translate(20 20) rotate(90) scale(20)">
<stop stop-color="#454646"/>
<stop offset="1" stop-color="#353535"/>
</radialGradient>
</defs>
</svg>
