<svg width="64" height="64" viewBox="0 0 64 64" fill="none" xmlns="http://www.w3.org/2000/svg">
<circle cx="32" cy="32" r="32" fill="url(#paint0_radial)"/>
<path fill-rule="evenodd" clip-rule="evenodd" d="M63.8806 34.7835C63.7612 36.1693 63.5535 37.5298 63.2631 38.8593C60.2403 37.0114 54.5899 35.3523 40.2865 37.4257C28.7939 39.0917 23.1168 43.7703 18.0218 47.9692C15.0953 50.381 12.3608 52.6346 8.82664 54.0681C4.90368 49.9499 2.0672 44.7873 0.776916 39.0401C5.05927 40.6427 14.7226 41.898 28.0249 35.288C44.9972 26.8543 59.0991 32.1467 63.8806 34.7835ZM27.8049 57.0997C39.1835 53.4164 48.9508 53.0591 55.6229 53.5864C55.2465 53.9981 54.8595 54.3999 54.4623 54.7914C51.0427 54.6338 46.3964 54.8485 39.9512 55.7279C30.7794 56.9794 25.1222 59.382 20.4867 61.8663C19.0996 61.3312 17.7592 60.7023 16.4732 59.9874C19.8387 59.3754 23.6277 58.4519 27.8049 57.0997ZM62.1642 21.2911C57.86 19.7828 50.4128 18.3714 41.472 19.968C37.1191 20.7453 32.9314 21.9475 28.6867 23.166C20.0851 25.6352 11.2497 28.1715 0.331662 27.3758C1.25831 20.9736 4.08032 15.1851 8.21035 10.5974C12.6679 10.8026 18.8028 10.8875 27.1361 10.752C44.3327 10.4724 52.8249 11.3381 57.4498 12.5985C59.4433 15.2096 61.0442 18.1365 62.1642 21.2911Z" fill="#4D4D4E" fill-opacity="0.19"/>
<path fill-rule="evenodd" clip-rule="evenodd" d="M27.8049 57.0997C23.6277 58.4519 19.8387 59.3754 16.4732 59.9874C17.7592 60.7023 19.0996 61.3312 20.4867 61.8663C25.1222 59.382 30.7794 56.9794 39.9512 55.7279C46.3964 54.8485 51.0427 54.6338 54.4623 54.7914C54.8595 54.3999 55.2465 53.9981 55.6229 53.5864C48.9508 53.0591 39.1835 53.4164 27.8049 57.0997Z" fill="#4D4D4E" fill-opacity="0.19"/>
<path fill-rule="evenodd" clip-rule="evenodd" d="M28.0249 35.288C14.7226 41.898 5.05927 40.6427 0.776916 39.0401C2.0672 44.7873 4.90368 49.9499 8.82664 54.0681C12.3608 52.6346 15.0953 50.381 18.0218 47.9692C23.1168 43.7703 28.7939 39.0917 40.2865 37.4257C54.5899 35.3523 60.2403 37.0114 63.2631 38.8593C63.5535 37.5298 63.7612 36.1693 63.8806 34.7835C59.0991 32.1467 44.9972 26.8543 28.0249 35.288Z" fill="#4D4D4E" fill-opacity="0.19"/>
<path fill-rule="evenodd" clip-rule="evenodd" d="M8.21035 10.5974C4.08032 15.1851 1.25831 20.9736 0.331662 27.3758C11.2497 28.1715 20.0851 25.6352 28.6867 23.166C32.9314 21.9475 37.1191 20.7453 41.472 19.968C50.4128 18.3714 57.86 19.7828 62.1642 21.2911C61.0442 18.1365 59.4433 15.2096 57.4498 12.5985C52.8249 11.3381 44.3327 10.4724 27.1361 10.752C18.8028 10.8875 12.6679 10.8026 8.21035 10.5974Z" fill="#4D4D4E" fill-opacity="0.19"/>
<defs>
<radialGradient id="paint0_radial" cx="0" cy="0" r="1" gradientUnits="userSpaceOnUse" gradientTransform="translate(32 32) rotate(90) scale(32)">
<stop stop-color="#333536"/>
<stop offset="1" stop-color="#232526"/>
</radialGradient>
</defs>
</svg>
