<svg width="639" height="290" viewBox="0 0 639 290" fill="none" xmlns="http://www.w3.org/2000/svg">
<path d="M521.374 0.397301C557.944 3.25799 591.189 21.5194 613.326 50.8709C628.033 70.3863 636.442 92.3313 638.71 117.294C639.297 123.525 638.945 138.298 638.084 144.372C634.799 168.12 625.725 189.438 611.253 207.464C594.083 228.861 571.203 243.987 545.193 251.08C542.064 251.942 538.739 252.726 537.762 252.883C536.041 253.079 536.08 253.079 538.153 252.491C575.622 242.145 606.404 214.91 621.032 179.132C639.336 134.38 630.34 83.2006 597.955 47.3832C567.878 14.1913 522.391 -0.38645 478.702 9.21451C454.218 14.6224 432.941 26.6138 414.988 45.2671C408.926 51.4979 409.982 49.6169 416.749 42.1321C443.032 12.8198 482.027 -2.7377 521.374 0.397301Z" fill="white"/>
<path d="M229.451 76.2858C205.402 79.212 187.943 94.7168 182.836 117.734C182.051 121.271 181.92 123.324 181.92 131.71C181.92 140.052 182.051 142.148 182.836 145.686C187.681 167.873 204.267 182.984 227.705 186.566C233.423 187.483 244.029 187.134 249.31 185.911C260.266 183.421 268.951 178.792 276.109 171.716C283.966 163.986 288.811 154.377 290.6 142.934C291.167 139.528 291.255 136.47 291.08 129.351C290.906 121.315 290.731 119.612 289.771 115.943C287.021 105.417 282.482 97.5556 275.28 90.6986C268.035 83.8416 259.043 79.2994 248.481 77.1156C243.418 76.1111 234.339 75.6743 229.451 76.2858ZM245.557 99.8268C253.457 101.836 260.571 107.557 264.107 114.676C266.725 120.005 267.336 123.892 267.118 133.457C266.944 140.576 266.856 141.362 265.634 144.812C263.976 149.573 261.881 152.674 257.865 156.517C251.929 162.108 246.124 164.204 236.434 164.204C229.407 164.204 226.57 163.636 221.376 161.059C216.837 158.832 211.338 153.329 209.024 148.743C206.362 143.371 205.925 140.925 205.925 131.71C205.925 122.276 206.449 119.524 209.199 114.196C211.599 109.566 217.23 104.063 221.9 101.836C226.57 99.6084 229.407 99.0406 236.26 98.9969C240.843 98.9533 242.981 99.1716 245.557 99.8268Z" fill="white"/>
<path d="M506.957 76.2421C485.046 78.7316 467.98 92.0089 461.433 111.532C459.382 117.734 458.684 122.625 458.684 131.491C458.684 140.445 459.426 145.817 461.433 151.888C467.195 169.008 481.162 181.369 499.843 185.736C505.997 187.177 516.079 187.57 522.321 186.566C534.455 184.731 544.537 179.884 552.743 171.978C563.872 161.278 569.023 146.734 568.237 128.216C567.932 121.053 566.666 114.502 564.571 109.217C557.806 92.1399 543.708 80.697 524.983 77.0719C519.964 76.0674 511.54 75.718 506.957 76.2421ZM522.059 99.6521C527.384 100.919 531.094 103.102 535.458 107.47C542.398 114.414 543.926 118.782 543.926 131.666C543.926 141.187 543.446 143.72 540.783 148.874C538.645 153.023 534.149 157.784 530.177 160.186C524.896 163.374 518.567 164.728 511.191 164.291C502.287 163.767 497.267 161.584 491.332 155.6C486.792 151.058 484.61 147.214 483.475 141.886C482.471 137.169 482.602 124.853 483.693 120.616C486.268 110.571 494.299 102.447 504.295 99.8268C508.485 98.7349 517.912 98.6475 522.059 99.6521Z" fill="white"/>
<path d="M26.4936 76.7662C26.2754 77.2903 0.960229 183.203 0.305527 186.173L0 187.614H10.9553H21.9107L22.1289 186.61C22.2599 186.085 23.5256 180.713 24.8787 174.73L27.3665 163.811H46.3529H65.3392L67.7834 174.512C69.0928 180.408 70.3586 185.736 70.4895 186.391L70.7951 187.614H81.7504H92.6621L92.4002 186.173C92.2256 185.43 86.2897 160.404 79.1316 130.618L66.2121 76.4605L46.4402 76.3295C30.8583 76.2421 26.6245 76.3295 26.4936 76.7662ZM54.2529 115.113L60.6254 143.284L46.4402 143.415C38.6274 143.458 32.1677 143.458 32.0804 143.371C31.9494 143.196 44.3451 88.5586 44.8252 87.2483C44.9562 86.8989 45.5672 86.7242 46.4402 86.8116L47.8369 86.9426L54.2529 115.113Z" fill="white"/>
<path d="M96.9831 131.928V187.614H107.458H117.934V166.694V145.773L132.468 145.598C145.562 145.38 147.308 145.293 150.407 144.419C162.017 141.275 170.441 132.889 173.67 121.228C174.762 117.166 174.805 103.889 173.67 99.8268C172.186 94.3674 169.611 89.9125 165.508 85.807C162.41 82.6624 161.144 81.7015 157.652 79.9982C150.145 76.3732 151.542 76.5042 122.647 76.3295L96.9831 76.1985V131.928ZM144.471 97.0316C147.788 98.1234 150.669 100.526 152.196 103.539C153.418 105.941 153.506 106.422 153.506 110.92C153.506 115.288 153.375 115.987 152.327 117.952C150.232 121.926 146.959 124.241 142.157 125.115C140.761 125.377 134.738 125.595 128.758 125.595H117.934V110.964V96.3328H130.111C140.106 96.3328 142.681 96.4638 144.471 97.0316Z" fill="white"/>
<path d="M297.758 131.928V187.614H333.549H369.339V177.569V167.523H344.024H318.709V121.883V76.2422H308.233H297.758V131.928Z" fill="white"/>
<path d="M385.488 131.928V187.614H421.279H457.069V177.569V167.523H431.754H406.439V121.883V76.2422H395.963H385.488V131.928Z" fill="white"/>
<path d="M349.698 228.669V231.289H355.808H361.919V250.943V270.597H355.59H349.261V273.218V275.838H364.756H380.251V273.218V270.597H373.922H367.593V248.323V226.048H358.646H349.698V228.669Z" fill="white"/>
<path d="M426.08 250.943V275.838H428.917H431.754V272.912V269.986L433.762 272.082C434.853 273.218 436.86 274.703 438.214 275.314C440.352 276.319 441.269 276.493 444.848 276.493C448.121 276.45 449.431 276.275 451.046 275.532C456.982 272.825 460.124 267.933 460.823 260.377C461.608 251.642 457.898 244.13 451.264 241.073C448.907 239.981 448.034 239.806 444.63 239.806C439.698 239.806 436.991 240.898 434.198 243.999C433.15 245.178 432.147 246.139 432.016 246.139C431.885 246.139 431.754 241.597 431.754 236.094V226.048H428.917H426.08V250.943ZM448.558 246.052C450.915 247.231 452.879 249.415 454.101 252.035C455.367 254.874 455.498 260.552 454.319 263.915C452.835 268.151 448.994 271.034 444.324 271.383C439.567 271.733 435.595 269.549 433.281 265.312C432.234 263.347 431.972 262.299 431.841 259.154C431.492 252.166 434.067 247.711 439.828 245.397C441.749 244.61 446.463 244.96 448.558 246.052Z" fill="white"/>
<path d="M123.564 240.374C116.013 242.907 111.823 249.196 111.823 258.15C111.823 264.526 113.569 268.937 117.541 272.519C120.727 275.401 123.782 276.45 128.845 276.493C132.643 276.493 133.166 276.406 135.349 275.183C136.745 274.397 138.273 273.13 139.059 272.038C139.757 271.034 140.499 270.291 140.717 270.422C140.892 270.553 141.066 273.567 141.066 277.148C141.066 282.477 140.935 283.743 140.368 284.311C139.801 284.923 138.142 285.01 128.802 285.01H117.89L117.977 287.412L118.065 289.814H130.635H143.249L144.558 288.591C145.387 287.892 146.086 286.713 146.304 285.665C146.522 284.704 146.653 274.178 146.61 262.299L146.522 240.68L143.816 240.548L141.066 240.417V243.3C141.066 244.872 140.935 246.139 140.804 246.139C140.674 246.139 139.67 245.134 138.579 243.955C135.785 240.854 133.777 239.893 129.5 239.719C126.968 239.631 125.354 239.806 123.564 240.374ZM134.607 246.27C139.059 248.89 140.804 252.297 140.804 258.15C140.804 262.91 139.713 265.793 136.964 268.326C134.388 270.728 131.726 271.645 128.278 271.383C123.957 271.034 120.902 269.025 118.894 265.181C117.846 263.172 117.715 262.517 117.715 258.368C117.715 254.219 117.846 253.52 118.937 251.293C121.12 246.794 124.742 244.741 129.806 245.003C131.944 245.091 133.21 245.44 134.607 246.27Z" fill="white"/>
<path d="M162.41 240.199C154.902 242.208 150.669 248.672 150.669 258.15C150.712 262.736 151.149 265.138 152.676 268.195C157.521 277.847 171.663 279.725 177.162 271.427C178.515 269.374 179.039 269.287 179.039 271.034C179.039 271.907 179.519 272.868 180.523 273.96C181.92 275.489 182.182 275.576 185.106 275.751L188.205 275.925V273.261V270.597H186.677C185.412 270.597 185.062 270.379 184.713 269.461C184.451 268.85 184.277 262.43 184.277 254.394V240.461H181.658H179.039V243.3C179.039 244.872 178.952 246.139 178.821 246.139C178.734 246.139 177.511 244.96 176.115 243.562C174.107 241.509 173.059 240.811 171.226 240.286C168.433 239.457 165.203 239.413 162.41 240.199ZM171.095 245.44C176.464 247.362 179.519 252.952 178.865 259.853C178.21 266.666 174.543 270.815 168.608 271.34C163.85 271.776 159.878 269.68 157.783 265.705C156.255 262.736 155.863 256.752 156.954 253.083C158.7 246.925 165.29 243.387 171.095 245.44Z" fill="white"/>
<path d="M199.553 240.374C198.724 240.767 197.589 241.815 197.022 242.645C195.581 244.785 195.188 244.741 195.188 242.426V240.417L192.482 240.548L189.733 240.679V258.15V275.62L192.482 275.751L195.188 275.882V263.085C195.188 255.966 195.407 249.589 195.625 248.716C196.192 246.619 197.764 245.265 199.902 244.96C201.997 244.698 203.263 245.309 204.354 247.143C205.184 248.454 205.227 249.458 205.227 262.168V275.838H208.064H210.901V262.473C210.901 247.799 211.032 247.012 213.476 245.571C216.444 243.824 219.762 245.222 220.504 248.541C220.722 249.502 220.94 256.053 220.94 263.041V275.838H223.559H226.178V260.857C226.178 247.274 226.09 245.746 225.348 244.173C223.908 241.029 221.595 239.588 218.059 239.588C215.353 239.588 213.52 240.461 211.6 242.689C210.072 244.479 209.897 244.567 209.417 243.78C207.54 240.767 205.707 239.588 202.739 239.588C201.823 239.588 200.382 239.937 199.553 240.374Z" fill="white"/>
<path d="M243.069 240.024C238.791 241.116 234.165 244.654 232.332 248.279C228.054 256.621 230.193 268.239 236.915 273.392C243.243 278.24 254.417 277.672 259.698 272.213C261.313 270.553 263.015 267.758 263.365 266.273C263.452 265.924 262.753 265.487 261.531 265.094C258.738 264.264 258.171 264.308 257.865 265.574C257.429 267.365 254.461 269.986 251.929 270.815C248.917 271.82 244.16 271.558 241.585 270.248C238.399 268.588 235.78 264.264 235.78 260.683V259.634L249.878 259.678L263.932 259.722L263.888 255.835C263.888 252.472 263.714 251.598 262.535 249.065C260.833 245.484 258.127 242.732 254.766 241.116C252.671 240.155 251.405 239.893 248.437 239.762C246.386 239.675 243.985 239.806 243.069 240.024ZM252.627 246.051C255.77 247.667 258.476 251.467 258.476 254.306C258.476 254.743 255.901 254.874 247.128 254.874H235.78L236.042 253.651C237.002 249.764 240.057 246.532 244.073 245.222C245.949 244.61 250.707 245.047 252.627 246.051Z" fill="white"/>
<path d="M280.43 240.374C275.236 242.252 273.185 244.698 272.967 249.415C272.749 253.433 273.752 255.66 276.633 257.495C278.903 258.936 281.129 259.504 286.541 260.115C290.731 260.552 293.917 261.731 294.659 263.085C294.921 263.609 295.139 264.876 295.139 265.924C295.139 269.505 292.171 271.471 286.759 271.471C281.172 271.471 277.244 268.719 276.502 264.352C276.24 262.517 276.502 262.561 272.356 263.653C270.654 264.089 270.654 264.133 271.657 267.54C273.447 273.48 279.95 277.061 288.156 276.624C296.056 276.144 300.813 271.995 300.813 265.574C300.813 259.416 297.147 256.403 288.156 255.354C280.649 254.437 278.685 253.433 278.248 250.288C277.812 246.881 280.78 244.654 285.755 244.654C289.727 244.61 292.39 246.052 293.786 248.891C294.31 249.939 294.703 251.031 294.703 251.336C294.703 251.642 295.008 251.773 295.489 251.642C295.881 251.511 297.06 251.205 298.107 250.943C299.111 250.681 299.941 250.201 299.941 249.895C299.941 248.628 297.147 243.868 295.838 242.863C291.866 239.85 285.013 238.714 280.43 240.374Z" fill="white"/>
<path d="M396.967 240.243C392.384 241.64 389.329 244.436 387.059 249.196C385.75 251.948 385.706 252.21 385.706 258.15C385.706 263.478 385.837 264.57 386.71 266.71C389.285 273.174 395.614 277.105 402.51 276.624C406.264 276.362 409.538 274.615 411.589 271.907C413.422 269.505 413.859 269.287 413.859 270.815C413.859 273.829 416.521 275.838 420.58 275.838H423.024V273.218V270.597H421.497C420.449 270.597 419.882 270.335 419.533 269.767C419.271 269.199 419.096 263.653 419.096 254.699V240.461H416.477H413.859V243.3C413.859 244.872 413.728 246.139 413.597 246.139C413.466 246.139 412.244 244.96 410.891 243.562C408.927 241.509 407.923 240.811 406.046 240.286C403.209 239.457 399.499 239.413 396.967 240.243ZM406.089 245.527C411.807 247.449 415.081 255.092 413.248 262.299C412.331 265.88 410.716 268.239 407.966 269.942C406.089 271.121 405.478 271.252 402.336 271.252C399.281 271.252 398.539 271.078 396.749 270.029C392.821 267.758 391.162 264.264 391.162 258.368C391.162 254 392.122 250.9 394.13 248.672C397.229 245.222 401.768 244.043 406.089 245.527Z" fill="white"/>
</svg>
