<svg width="626" height="671" viewBox="0 0 626 671" fill="none" xmlns="http://www.w3.org/2000/svg">
<path d="M342.759 670.881C342.834 670.853 342.957 670.853 343.032 670.881C343.107 670.909 343.041 670.937 342.895 670.937C342.745 670.937 342.684 670.909 342.759 670.881H342.759ZM343.277 670.794C343.338 670.766 344.614 670.467 346.115 670.127C360.225 666.935 375.067 662.46 389.016 657.192C451.053 633.765 505.001 591.716 543.225 536.996C567.697 501.963 585.169 462.438 594.544 420.902C601.62 389.555 604.123 356.901 601.916 324.741C599.491 289.407 591.639 255.359 578.397 222.764C564.481 188.511 544.768 156.686 520.149 128.727C511.551 118.963 501.635 108.985 491.917 100.321C473.553 83.9471 453.346 69.6113 431.894 57.7366C424.073 53.4076 414.545 48.6649 406.302 44.9977C371.639 29.5771 334.49 20.299 296.459 17.5641C287.839 16.944 282.157 16.7513 272.504 16.7513C264.503 16.7513 260.956 16.8379 254.552 17.1822C200.571 20.0973 148.672 36.0231 102.53 63.8317C68.7672 84.1791 38.6868 110.59 14.2636 141.329C10.6808 145.838 10.6494 145.811 14.011 141.11C28.058 121.467 44.6087 102.959 62.805 86.5465C103.875 49.5026 153.891 22.9339 207.297 9.79242C230.208 4.155 251.974 1.13089 276.652 0.157094C284.155 -0.139181 298.003 -0.00271623 306.554 0.451478C347.586 2.63287 387.749 12.2481 425.001 28.808C431.709 31.7898 440.145 35.8884 446.19 39.1029C482.914 58.6303 515.409 84.4654 542.933 116.017C564.49 140.729 582.738 169.25 596.271 199.386C619.062 250.135 628.887 305.969 624.891 362.023C621.105 415.136 604.998 466.026 577.5 511.756C565.689 531.397 551.791 549.905 536.119 566.861C528.278 575.345 519.178 584.212 510.579 591.748C484.898 614.254 456.068 632.686 424.909 646.519C402.463 656.484 379.059 663.912 354.845 668.758C349.628 669.802 342.829 670.998 343.277 670.793L343.277 670.794ZM118.19 495.091V492.52L129.095 492.483C139.919 492.446 140.003 492.441 140.309 492.228C140.478 492.104 140.715 491.808 140.835 491.572C141.045 491.157 141.055 490.892 141.084 484.608L141.131 478.076H140.663C140.215 478.076 140.182 478.108 139.887 478.625C139.457 479.393 138.435 480.655 137.732 481.288C136.196 482.67 134.19 483.668 131.956 484.158C130.545 484.469 127.323 484.441 125.634 484.105C117.973 482.58 112.861 476.911 111.991 468.978C111.818 467.4 111.846 463.874 112.044 462.364C112.951 455.433 117.266 450.021 123.443 448.067C125.257 447.493 126.218 447.339 128.37 447.275C131.282 447.188 133.069 447.521 135.04 448.515C137.106 449.556 138.942 451.309 139.922 453.175C140.183 453.67 140.217 453.694 140.659 453.694H141.123V450.96V448.227H143.853H146.582L146.54 470.887L146.498 493.547L146.233 494.226C145.693 495.607 144.517 496.785 143.139 497.326L142.461 497.592L130.32 497.629L118.179 497.666V495.096L118.19 495.091ZM131.245 479.011C133.75 478.58 135.654 477.575 137.452 475.736C139.543 473.597 140.706 470.903 141.003 467.51C141.212 465.137 140.957 462.657 140.343 460.789C139.002 456.778 136.209 454.022 132.323 452.875C130.926 452.463 128.432 452.379 126.921 452.695C123.317 453.446 120.573 455.581 118.95 458.896C118.243 460.338 117.937 461.312 117.696 462.887C117.51 464.101 117.483 467.23 117.647 468.546C118.18 472.802 120.466 476.219 123.947 477.964C124.917 478.45 126.358 478.904 127.412 479.057C128.477 479.21 130.206 479.189 131.244 479.009L131.245 479.011ZM164.572 484.268C158.558 483.399 154.171 479.885 151.971 474.175C151.05 471.784 150.712 469.546 150.712 465.839C150.712 462.158 151.051 459.89 151.951 457.555C153.893 452.518 157.684 449.054 162.662 447.768C164.251 447.357 165.126 447.252 166.952 447.252C170.042 447.252 172.345 447.92 174.582 449.464C175.841 450.334 177.45 452.186 178.003 453.402C178.121 453.662 178.202 453.702 178.613 453.702H179.086V450.969V448.236H181.813H184.539L184.572 462.641C184.604 476.822 184.609 477.052 184.82 477.417C185.244 478.138 185.505 478.244 186.955 478.285L188.257 478.332V480.902V483.472L185.72 483.424C183.45 483.378 183.114 483.352 182.528 483.137C181.6 482.797 180.754 482.176 180.165 481.401C179.493 480.517 179.195 479.693 179.107 478.476L179.035 477.492L178.639 477.445C178.251 477.403 178.235 477.422 177.805 478.21C176.175 481.183 173.581 483.166 170.153 484.058C168.836 484.402 166.2 484.498 164.575 484.263L164.572 484.268ZM170.575 478.816C174.249 477.866 176.949 475.222 178.26 471.288C178.911 469.337 179.164 466.858 178.98 464.243C178.555 458.219 175.062 453.758 169.941 452.698C169.063 452.517 168.603 452.488 167.246 452.532C165.273 452.596 164.354 452.813 162.771 453.594C160.563 454.684 158.948 456.335 157.801 458.678C156.688 460.95 156.388 462.486 156.388 465.894C156.388 468.436 156.543 469.796 156.999 471.304C158.297 475.585 161.485 478.388 165.827 479.065C166.989 479.245 169.403 479.119 170.575 478.817V478.816ZM245.186 484.318C243.021 484.044 241.411 483.564 239.492 482.619C237.776 481.774 236.554 480.87 235.162 479.418C232.821 476.974 231.231 473.738 230.567 470.065C230.355 468.893 230.327 468.356 230.326 465.511C230.325 462.583 230.352 462.172 230.573 461.055C231.306 457.434 232.75 454.692 235.225 452.221C237.654 449.796 240.404 448.307 243.841 447.556C244.808 447.345 245.28 447.314 247.568 447.311C249.674 447.297 250.376 447.357 251.155 447.504C254.374 448.16 257.126 449.649 259.467 452.001C261.798 454.344 263.16 456.908 263.884 460.318C264.077 461.224 264.127 461.932 264.179 464.445L264.24 467.479H250.038H235.836V467.999C235.837 468.679 236.105 470.302 236.365 471.197C237.405 474.775 239.828 477.407 243.093 478.504C244.56 478.997 245.501 479.123 247.676 479.116C250.002 479.102 251.117 478.933 252.696 478.319C254.044 477.795 254.902 477.239 255.922 476.226C256.926 475.23 257.629 474.15 258.163 472.782C258.327 472.361 258.475 471.999 258.493 471.977C258.524 471.93 263.572 473.276 263.658 473.348C263.765 473.438 263.164 475.031 262.615 476.112C261.857 477.603 260.895 478.876 259.542 480.178C257.263 482.369 254.936 483.505 251.496 484.106C250.027 484.362 246.476 484.482 245.185 484.318L245.186 484.318ZM258.645 462.3C258.645 461.853 258.281 460.175 258.034 459.48C256.975 456.505 254.532 454.176 251.364 453.121C249.752 452.585 248.856 452.464 246.967 452.529C243.697 452.641 241.258 453.692 239.055 455.94C237.429 457.599 236.349 459.734 235.998 461.985L235.926 462.45H247.285C256.827 462.45 258.645 462.413 258.645 462.3V462.3ZM284.358 484.306C280.574 483.906 277.322 482.515 275 480.303C272.733 478.143 271.428 475.459 271.043 472.161L270.983 471.651L273.505 471.035C274.892 470.697 276.086 470.442 276.159 470.47C276.232 470.507 276.323 470.825 276.361 471.196C276.4 471.566 276.582 472.321 276.765 472.873C277.815 476.039 280.306 478.218 283.8 479.03C285.039 479.317 288.525 479.32 289.857 479.044C293.754 478.206 295.813 475.803 295.332 472.655C294.844 469.462 292.275 468.143 285.491 467.602C282.278 467.346 279.933 466.788 277.893 465.794C274.578 464.18 273.043 461.842 272.869 458.141C272.721 454.998 273.491 452.91 275.549 450.87C277.454 448.982 279.981 447.819 283.133 447.38C284.358 447.209 287.322 447.235 288.602 447.428C293.344 448.141 297.008 450.548 298.793 454.121C299.486 455.509 300.237 457.999 300.006 458.142C299.829 458.252 294.96 459.396 294.88 459.347C294.834 459.31 294.764 459.053 294.725 458.757C294.552 457.448 293.845 455.918 292.956 454.927C291.484 453.287 289.314 452.365 286.583 452.22C284.516 452.11 282.711 452.427 281.165 453.172C280.06 453.703 279.204 454.474 278.716 455.375C278.351 456.051 278.343 456.09 278.343 457.376C278.343 458.607 278.366 458.727 278.659 459.314C279.742 461.455 282.193 462.421 287.892 462.954C291.209 463.265 293.337 463.72 295.172 464.512C298.363 465.891 300.103 467.875 300.714 470.832C300.926 471.861 300.959 474.309 300.775 475.362C299.901 480.359 295.762 483.611 289.366 484.326C288.226 484.453 285.602 484.449 284.358 484.312L284.358 484.306ZM399.536 484.26C393.522 483.39 389.135 479.876 386.935 474.166C386.014 471.776 385.676 469.538 385.676 465.83C385.676 462.149 386.015 459.881 386.915 457.546C388.857 452.51 392.648 449.045 397.626 447.759C399.215 447.348 400.09 447.243 401.916 447.243C405.006 447.243 407.309 447.911 409.546 449.456C410.805 450.325 412.414 452.177 412.967 453.393C413.085 453.654 413.166 453.694 413.577 453.694H414.05V450.96V448.227H416.777H419.503L419.531 462.632C419.559 476.813 419.564 477.043 419.778 477.408C420.202 478.129 420.464 478.236 421.914 478.276L423.216 478.323V480.893V483.464L420.679 483.415C418.409 483.368 418.072 483.343 417.487 483.128C416.558 482.788 415.713 482.167 415.124 481.392C414.452 480.508 414.153 479.684 414.065 478.467L413.995 477.483L413.598 477.436C413.21 477.394 413.194 477.408 412.764 478.202C411.134 481.174 408.54 483.157 405.112 484.05C403.796 484.393 401.159 484.489 399.535 484.254L399.536 484.26ZM405.539 478.807C409.213 477.857 411.913 475.213 413.224 471.279C413.875 469.328 414.128 466.849 413.944 464.235C413.518 458.21 410.026 453.75 404.905 452.69C404.027 452.508 403.567 452.479 402.209 452.523C400.237 452.587 399.318 452.803 397.735 453.585C395.527 454.675 393.912 456.327 392.765 458.669C391.652 460.941 391.351 462.477 391.352 465.885C391.352 468.427 391.505 469.788 391.963 471.295C393.26 475.576 396.448 478.379 400.791 479.056C401.953 479.237 404.367 479.109 405.539 478.808V478.807ZM442.381 484.245C440.428 483.941 438.627 483.317 437.171 482.44C435.292 481.309 433.954 480.094 433.067 478.714C432.688 478.125 432.627 478.078 432.248 478.077L431.839 478.076V480.754V483.433H429.056H426.273V458.559V433.685H429.056H431.839V443.689V453.693L432.248 453.692C432.63 453.691 432.686 453.645 433.093 453.009C433.691 452.073 435.289 450.436 436.268 449.758C437.954 448.59 440.135 447.743 442.368 447.388C443.846 447.153 446.977 447.241 448.332 447.556C451.339 448.253 453.898 449.66 456.013 451.779C458.692 454.464 460.406 458.201 460.861 462.354C461.036 463.954 461.008 468.211 460.812 469.711C459.963 476.197 456.507 481.019 451.156 483.182C448.451 484.275 445.148 484.675 442.381 484.244L442.381 484.245ZM446.448 478.846C449.866 477.999 452.417 475.968 453.939 472.882C454.99 470.751 455.302 469.137 455.302 465.83C455.302 464.369 455.244 463.24 455.14 462.586C454.283 457.296 450.517 453.41 445.46 452.598C444.226 452.399 441.734 452.512 440.624 452.816C436.18 454.031 432.848 457.88 432.015 462.761C431.777 464.154 431.776 467.492 432.006 468.9C432.895 474.195 436.527 478.057 441.508 479.002C442.707 479.23 445.213 479.15 446.442 478.846L446.448 478.846ZM189.891 465.83V448.227H192.674H195.456V450.14V452.054L195.865 452.04C196.273 452.026 196.276 452.026 196.753 451.028C197.606 449.233 199.172 447.939 201.087 447.449C202.127 447.182 204.025 447.159 205.048 447.4C206.969 447.853 208.65 449.34 209.43 451.275C209.701 451.946 209.74 451.99 210.099 452.021C210.471 452.067 210.497 452.034 211.097 451.079C211.794 449.978 212.997 448.764 213.906 448.243C215.081 447.571 216.085 447.313 217.763 447.255C218.723 447.208 219.564 447.246 220.055 447.338C223.685 447.976 226.046 450.836 226.448 455.083C226.516 455.8 226.559 461.502 226.559 469.837L226.559 483.422H223.779H220.999L220.967 470.001C220.934 457.444 220.92 456.538 220.736 455.924C220.032 453.577 218.62 452.48 216.302 452.48C213.298 452.48 211.47 454.401 211.072 457.977C210.996 458.667 210.955 463.249 210.955 471.227V483.422H208.231H205.507L205.469 470.056C205.437 457.687 205.42 456.641 205.244 456.042C204.812 454.581 203.937 453.459 202.79 452.893C202.085 452.546 202.021 452.535 200.691 452.535C199.324 452.535 199.315 452.536 198.487 452.947C197.482 453.445 196.821 454.134 196.276 455.253C195.46 456.927 195.516 455.859 195.482 470.384L195.449 483.423H192.668H189.888L189.891 465.83ZM349.334 480.864V478.294H355.719H362.103V458.56V438.826L355.91 438.784L349.716 438.742L349.684 436.2L349.656 433.658H358.607H367.558V455.963V478.267H373.942H380.326V480.836V483.406H364.83H349.333L349.334 480.864ZM0 395.062C0.00107203 395.039 5.98518 369.942 13.2992 339.274L26.597 283.512H46.3883H66.1793L79.467 339.219C86.775 369.857 92.7561 394.963 92.7583 395.008C92.7676 395.054 87.8142 395.089 81.7669 395.088L70.7717 395.087L68.2713 384.018C66.8962 377.93 65.6764 372.543 65.5609 372.047L65.3507 371.145H46.3798H27.4087L27.3085 371.609C27.2535 371.865 26.0345 377.252 24.6003 383.582L21.9927 395.089H10.9958C4.94751 395.089 -0.00061406 395.075 0.000551189 395.047L0 395.062ZM60.6752 350.89C60.6742 350.816 57.785 337.986 54.2549 322.381L47.8366 294.008L46.4075 293.962C45.1171 293.915 44.9728 293.943 44.9193 294.125C44.8727 294.274 32.4726 348.404 31.9931 350.546L31.8896 351.011H46.2836C57.727 351.011 60.6772 350.964 60.6758 350.874L60.6752 350.89ZM97.0183 339.27V283.451L120.946 283.498L144.873 283.544L146.526 283.784C149.697 284.242 152.452 284.934 154.75 285.848C157.757 287.044 161.442 289.209 163.699 291.106C169.985 296.391 173.901 304.153 174.718 312.946C174.864 314.519 174.861 321.013 174.709 322.623C173.748 333.113 168.746 341.982 160.801 347.278C156.049 350.446 151.688 352.017 145.575 352.762C144.309 352.917 142.288 352.948 131.09 352.986L118.076 353.032V374.073V395.114H107.544H97.0128V339.294L97.0183 339.27ZM140.906 332.762C147.557 332.082 152.133 328.291 153.502 322.326C153.742 321.281 153.846 316.5 153.66 315.126C153.244 312.078 152.047 309.67 149.902 307.566C148.216 305.913 146.312 304.834 143.935 304.186C141.742 303.587 141.561 303.579 129.35 303.577L118.082 303.575V318.226V332.877H128.929C135.762 332.877 140.194 332.83 140.906 332.762L140.906 332.762ZM297.933 339.274V283.457H308.464H318.995V329.215V374.972H344.26H369.524V385.031V395.09H333.728H297.933V339.274ZM385.676 339.274V283.457H396.207H406.738V329.215V374.972H432.003H457.267V385.031V395.09H421.471H385.676V339.274ZM232.125 394.641C214.265 393.367 198.539 384.378 189.845 370.471C185.093 362.87 182.677 355.162 181.915 345.178C181.723 342.664 181.756 334.899 181.968 332.346C182.818 322.157 185.587 314.1 190.994 306.086C195.631 299.215 202.25 293.428 209.97 289.496C216.234 286.307 223.047 284.372 230.924 283.546C233.097 283.318 240.659 283.355 242.928 283.604C262.659 285.773 278.212 296.31 286.208 312.923C289.294 319.336 290.877 325.66 291.382 333.586C291.526 335.859 291.524 342.382 291.371 344.685C290.867 352.632 289.271 359.022 286.196 365.405C282.287 373.52 276.623 380.083 269.18 385.125C260.995 390.669 251.502 393.866 240.903 394.648C239.149 394.777 233.972 394.773 232.117 394.634L232.125 394.641ZM241.62 371.695C247.013 371.047 252.254 368.921 256.135 365.806C257.515 364.698 259.869 362.386 260.972 361.054C263.738 357.715 265.802 353.436 266.655 349.271C267.254 346.345 267.311 345.457 267.311 339.055C267.311 334.117 267.281 332.91 267.124 331.681C266.445 326.361 264.701 321.942 261.707 317.957C260.725 316.65 258.128 313.952 256.68 312.733C252.729 309.409 247.701 307.24 242.165 306.47C240.431 306.23 235.059 306.13 232.953 306.3C226.686 306.807 221.013 309.005 216.792 312.561C215.594 313.571 212.631 316.578 211.803 317.625C209.257 320.843 207.378 324.977 206.536 329.214C206.04 331.715 205.988 332.656 205.988 339.164C205.988 344.455 206.02 345.487 206.185 346.763C206.872 351.898 208.575 356.149 211.528 360.102C212.506 361.41 215.574 364.548 217.01 365.71C221.325 369.199 226.634 371.26 232.677 371.793C234.154 371.923 240.28 371.857 241.62 371.696L241.62 371.695ZM509.869 394.69C508.123 394.57 506.403 394.389 504.763 394.154C488.621 391.838 474.763 383.19 466.843 370.489C462.33 363.252 459.842 355.646 458.992 346.49C458.795 344.369 458.796 333.829 458.993 331.729C459.813 323.004 462.044 315.928 466.198 308.878C470.413 301.725 476.398 295.709 483.677 291.31C490.984 286.893 499.95 284.132 509.159 283.46C511.132 283.317 516.148 283.317 518.108 283.461C528.018 284.191 537.352 287.241 545.119 292.288C548.174 294.274 551.237 296.801 553.911 299.542C560.07 305.856 564.644 314.133 566.773 322.818C568.121 328.319 568.537 332.71 568.442 340.434C568.371 346.203 568.173 348.467 567.369 352.722C566.474 357.461 565.228 361.203 563.072 365.624C560.607 370.676 557.803 374.691 554.069 378.51C549.883 382.792 545.494 385.987 540.099 388.68C533.225 392.111 526.014 394.049 517.89 394.648C516.525 394.748 511.134 394.777 509.869 394.695L509.869 394.69ZM518.6 371.694C524.07 371.029 528.89 369.097 533.006 365.918C534.314 364.907 537.715 361.458 538.691 360.152C541.139 356.878 542.858 353.109 543.648 349.282C544.188 346.666 544.355 344.256 544.355 339.055C544.355 333.853 544.188 331.443 543.648 328.828C542.78 324.623 540.699 320.319 537.941 317.024C536.655 315.486 534.005 312.949 532.514 311.827C528.223 308.596 523.136 306.75 517.29 306.301C515.093 306.133 509.842 306.229 508.136 306.469C502.506 307.261 497.612 309.356 493.631 312.678C492.421 313.688 489.345 316.889 488.508 318.008C486.065 321.278 484.392 324.975 483.585 328.886C483.003 331.703 482.969 332.278 482.969 339.055C482.969 345.83 483.001 346.4 483.584 349.223C484.436 353.364 486.343 357.413 488.992 360.703C490.136 362.126 493.27 365.194 494.591 366.186C498.883 369.409 504.053 371.325 509.73 371.796C511.272 371.924 517.276 371.855 518.6 371.693V371.694ZM10.9122 145.434C10.9122 145.387 10.9984 145.326 11.1028 145.243C11.2767 145.106 11.2799 145.11 11.1494 145.289C11.0068 145.47 10.9168 145.53 10.9168 145.439L10.9122 145.434Z" fill="white"/>
</svg>
